<?xml version="1.0" encoding="UTF-8" standalone="no"?>
<!-- Created with Inkscape (http://www.inkscape.org/) -->

<svg
   xmlns:dc="http://purl.org/dc/elements/1.1/"
   xmlns:cc="http://creativecommons.org/ns#"
   xmlns:rdf="http://www.w3.org/1999/02/22-rdf-syntax-ns#"
   xmlns:svg="http://www.w3.org/2000/svg"
   xmlns="http://www.w3.org/2000/svg"
   xmlns:sodipodi="http://sodipodi.sourceforge.net/DTD/sodipodi-0.dtd"
   xmlns:inkscape="http://www.inkscape.org/namespaces/inkscape"
   id="svg2"
   version="1.1"
   inkscape:version="0.48.4 r9939"
   width="131"
   height="36"
   sodipodi:docname="ceph.png">
  <metadata
     id="metadata8">
    <rdf:RDF>
      <cc:Work
         rdf:about="">
        <dc:format>image/svg+xml</dc:format>
        <dc:type
           rdf:resource="http://purl.org/dc/dcmitype/StillImage" />
        <dc:title></dc:title>
      </cc:Work>
    </rdf:RDF>
  </metadata>
  <defs
     id="defs6" />
  <sodipodi:namedview
     pagecolor="#ffffff"
     bordercolor="#666666"
     borderopacity="1"
     objecttolerance="10"
     gridtolerance="10"
     guidetolerance="10"
     inkscape:pageopacity="0"
     inkscape:pageshadow="2"
     inkscape:window-width="1280"
     inkscape:window-height="728"
     id="namedview4"
     showgrid="false"
     inkscape:zoom="2.9312977"
     inkscape:cx="65.5"
     inkscape:cy="16.976562"
     inkscape:window-x="0"
     inkscape:window-y="25"
     inkscape:window-maximized="1"
     inkscape:current-layer="svg2" />
  <g
     id="g3055"
     transform="translate(-1.3645808,0.68229167)">
    <path
       style="fill:#fdfdfd"
       d="M 65.5,36 0,36 0,18 0,0 65.5,0 131,0 l 0,18 0,18 -65.5,0 z"
       id="path3071"
       inkscape:connector-curvature="0" />
    <path
       style="fill:#f5a19d"
       d="M 12.535964,36 C 11.756103,36 10.851232,35.568305 10.52514,35.040677 10.199048,34.51305 10.48491,33.196392 11.160397,32.114771 12.132662,30.557928 12.129531,29.66396 11.145377,27.824094 10.461625,26.545842 9.2063014,24.224223 8.3557641,22.664941 7.3677241,20.853576 7.0287945,18.660049 7.417119,16.590102 7.7514015,14.808223 9.2568017,12.197054 10.762453,10.787505 12.268104,9.3779561 14.519565,7.9165669 15.7657,7.5399737 c 1.246135,-0.3765932 3.826598,-0.1695721 5.734363,0.460047 1.907764,0.6296192 4.3757,2.2978723 5.4843,3.7072293 1.292367,1.642979 2.007658,4.039101 1.993401,6.677609 C 28.964055,20.921896 28.205608,23.458718 27,25 c -1.075541,1.375 -1.965534,3.6475 -1.977764,5.05 -0.01223,1.4025 0.473062,3.045298 1.078427,3.650663 0.800884,0.800884 0.481184,1.297278 -1.173804,1.822551 -1.632684,0.518194 -2.648679,0.210124 -3.600663,-1.091793 C 20.596788,33.433897 20,31.216175 20,29.50315 20,27.751202 21.093758,24.906054 22.5,23 23.875,21.136292 25,19.003412 25,18.260266 25,17.51712 23.895455,15.804545 22.545455,14.454545 21.195455,13.104545 19.170455,12 18.045455,12 16.920455,12 15.1,12.9 14,14 c -1.1,1.1 -2,3.064314 -2,4.365141 0,1.300828 0.872105,3.473843 1.93801,4.828922 1.065906,1.35508 2.240512,3.669044 2.610237,5.142144 0.442082,1.761396 0.113051,3.531772 -0.961063,5.171078 C 14.688874,34.878278 13.315826,36 12.535964,36 z M 91.5,36 89,36 89,22 89,8 91.5,8 c 1.375,0 2.5,0.54 2.5,1.2 0,0.933333 0.266667,0.933333 1.2,0 0.66,-0.66 3.327857,-1.2 5.92857,-1.2 2.96537,0 5.31453,0.5859589 6.3,1.5714286 C 108.60643,10.749288 109,13.235931 109,19.5 c 0,6.264069 -0.39357,8.750712 -1.57143,9.928571 C 106.52456,30.332588 104.16069,31 101.86283,31 99.665958,31 96.998101,30.534167 95.934259,29.964816 94.191462,29.0321 94,29.279561 94,32.464816 94,35.569012 93.695215,36 91.5,36 z M 100.25,26.921053 104,27 l 0,-7.5 0,-7.5 -3.41821,0 c -1.880019,0 -4.130019,0.273145 -5.000003,0.606989 C 94.370665,13.07174 94,14.692545 94,19.523655 c 0,4.11207 0.435365,6.485352 1.25,6.814064 0.6875,0.277413 2.9375,0.539913 5,0.583334 z M 6.9468008,33 C 6.4416677,33 4.7844922,31.120363 3.2641885,28.823029 0.99818225,25.398863 0.5,23.538371 0.5,18.5 0.5,13.434284 0.99501569,11.605922 3.3161397,8.0984672 5.0880422,5.4209418 7.6836737,3.1386368 10.31614,1.9434584 12.617263,0.89871446 16.158205,0.0340411 18.1849,0.021962 c 2.026696,-0.0120791 4.951696,0.45666628 6.5,1.0416564 1.548305,0.5849901 4.092774,2.2724901 5.654376,3.75 1.561602,1.4775099 3.538388,4.0258495 4.392858,5.6629766 0.854469,1.637128 1.55358,5.24766 1.55358,8.023405 0,2.775745 -0.693215,6.387339 -1.540478,8.025765 -0.847263,1.638426 -2.422026,3.776747 -3.499474,4.751824 -1.672398,1.513499 -2.130759,1.565907 -3.133045,0.358227 -0.922464,-1.111502 -0.631759,-2.434545 1.356618,-6.174168 C 30.861201,22.843909 32,19.599652 32,18.25219 32,16.904727 31.277092,14.278843 30.393538,12.416892 29.509985,10.55494 27.231206,8.0699441 25.329586,6.8946783 22.601948,5.2089053 20.810518,4.8598356 16.843144,5.24105 12.948073,5.6153171 11.127644,6.4108175 8.7692308,8.7692308 6.4068427,11.131619 5.6154636,12.946548 5.2388899,16.865625 4.8568757,20.841323 5.2124888,22.694967 6.9087763,25.56996 8.153416,27.679467 8.8107842,30.020806 8.4646331,31.111431 8.1349584,32.150144 7.4519339,33 6.9468008,33 z M 54.922445,31 c -4.991482,0 -7.024096,-0.417556 -8.05,-1.653695 C 45.955435,28.241376 45.5,24.973959 45.5,19.5 45.5,14.026041 45.955435,10.758624 46.872445,9.6536947 47.898349,8.4175556 49.930963,8 54.922445,8 c 3.86032,0 7.18383,0.5062753 7.877555,1.2 0.66,0.66 1.2,2.46 1.2,4 0,2.32 -0.428571,2.8 -2.5,2.8 -1.856621,0 -2.5,-0.5295 -2.5,-2.057498 0,-1.802154 -0.527442,-2.019336 -4.25,-1.75 L 50.5,12.5 l 0,7 0,7 4.5,0 c 3.905318,0 4.542229,-0.297341 4.819551,-2.25 C 60.02491,22.804043 60.828952,22 62.069551,22 63.586827,22 64,22.706298 64,25.3 c 0,1.815 -0.54,3.84 -1.2,4.5 -0.693725,0.693725 -4.017235,1.2 -7.877555,1.2 z m 22.011814,0 C 71.019403,31 69.906635,30.704791 68.556704,28.777494 67.504885,27.275812 67,24.266848 67,19.5 67,14.733152 67.504885,11.724188 68.556704,10.222506 69.906635,8.2952094 71.019403,8 76.934259,8 c 4.244204,0 7.20745,0.4722006 7.844247,1.25 0.562868,0.6875 1.180468,3.5 1.372445,6.25 L 86.5,20.5 79.25,20.79381 72,21.087619 72,24.04381 C 72,26.883809 72.178102,27 76.531385,27 c 3.105407,0 4.712521,-0.472034 5.106989,-1.5 0.316582,-0.825 1.61033,-1.5 2.874995,-1.5 1.881091,0 2.199189,0.409315 1.748579,2.25 -0.302947,1.2375 -0.990918,2.8125 -1.528825,3.5 C 84.121095,30.532235 81.202667,31 76.934259,31 z m 0.135292,-14 c 4.685327,0 5.045332,-0.170529 4.75,-2.25 C 81.546857,12.829925 80.803493,12.455308 76.75,12.195209 72.2433,11.906029 72,12.021277 72,14.445209 72,16.848965 72.299704,17 77.069551,17 z M 114.46247,31 112,31 112,15.5 C 112,6.975 112.25458,0 112.56574,0 c 0.31116,0 1.43616,0.46583269 2.5,1.0351838 1.43702,0.7690713 1.93426,2.1058241 1.93426,5.2 0,3.2393015 0.26667,3.8981492 1.2,2.9648162 0.66,-0.66 3.27,-1.2 5.8,-1.2 2.53,0 5.14,0.54 5.8,1.2 0.77799,0.7779935 1.2,4.822222 1.2,11.5 l 0,10.3 -2.56183,0 c -2.55261,0 -2.56137,-0.02971 -2.43173,-8.25 0.0716,-4.5375 0.0994,-8.838374 0.0618,-9.557498 -0.0476,-0.912232 -1.35308,-1.214539 -4.31827,-1 L 117.5,12.5 l -0.28753,9.25 c -0.28238,9.084568 -0.33156,9.25 -2.75,9.25 z M 18.467796,22 c -1.318586,0 -2.825105,-0.79912 -3.34782,-1.775823 -0.602904,-1.126536 -0.5976,-2.406227 0.01451,-3.5 C 15.665176,15.77588 16.92192,15 17.927245,15 c 1.005326,0 2.370144,0.653406 3.032929,1.452012 0.662784,0.798607 0.91256,2.373607 0.555057,3.5 C 21.098267,21.265749 20.005691,22 18.467796,22 z"
       id="path3069"
       inkscape:connector-curvature="0" />
    <path
       style="fill:#f2827e"
       d="m 13.05,35.984687 c -0.3025,-0.0084 -1.088746,-0.357799 -1.747214,-0.776393 -0.789582,-0.501946 -0.879917,-1.262818 -0.265312,-2.234687 0.512545,-0.810484 0.938791,-2.302629 0.947213,-3.315878 C 11.993109,28.64448 11.1,26.671294 10,25.272871 8.6817533,23.596991 8,21.216087 8,18.288218 8,14.711901 8.5697006,13.276453 10.923077,10.923077 13.049716,8.7964378 14.807922,8 17.376024,8 c 1.941428,0 4.601672,0.4883456 5.911652,1.0852124 1.30998,0.5968667 3.131153,2.3537986 4.047053,3.9042916 C 28.250628,14.539998 29,17.097192 29,18.672158 c 0,1.574965 -1.197875,4.626404 -2.661944,6.780976 -2.522299,3.711897 -2.579934,4.060299 -1.098643,6.641299 1.455393,2.535876 1.43598,2.757191 -0.281239,3.206254 -1.014497,0.265297 -2.545108,-0.29176 -3.401357,-1.237905 C 20.700568,33.116637 20,31.203248 20,29.810806 20,28.418364 21.125,25.621314 22.5,23.595138 23.875,21.568962 25,19.116019 25,18.144152 25,17.172286 24.08247,15.39227 22.961045,14.188561 21.799254,12.941525 19.714916,12 18.116032,12 16.572701,12 14.565231,12.822933 13.654988,13.828741 12.744744,14.834548 12,16.90107 12,18.421011 c 0,1.519942 0.9,3.907695 2,5.306118 1.173731,1.492158 2,4.056784 2,6.20773 C 16,31.950686 15.46,34.14 14.8,34.8 c -0.66,0.66 -1.4475,1.193109 -1.75,1.184687 z M 91.5,36 89,36 89,22 89,8 91.5,8 c 1.375,0 2.5,0.54 2.5,1.2 0,0.933333 0.266667,0.933333 1.2,0 0.66,-0.66 3.327857,-1.2 5.92857,-1.2 2.96537,0 5.31453,0.5859589 6.3,1.5714286 C 108.60643,10.749288 109,13.235931 109,19.5 c 0,6.264069 -0.39357,8.750712 -1.57143,9.928571 C 106.52456,30.332588 104.16069,31 101.86283,31 99.665958,31 96.998101,30.534167 95.934259,29.964816 94.191462,29.0321 94,29.279561 94,32.464816 94,35.569012 93.695215,36 91.5,36 z M 100.25,26.921053 104,27 l 0,-7.5 0,-7.5 -3.41821,0 c -1.880019,0 -4.130019,0.273145 -5.000003,0.606989 C 94.370665,13.07174 94,14.692545 94,19.523655 c 0,4.11207 0.435365,6.485352 1.25,6.814064 0.6875,0.277413 2.9375,0.539913 5,0.583334 z M 7.0135632,32 C 6.5359416,32 5.2140253,30.816254 4.0759715,29.369453 2.9379176,27.922652 1.4998125,24.885152 0.88018241,22.619453 0.03608253,19.532972 0.04680933,17.371604 0.92296042,14 1.6557192,11.180199 3.4752657,8.117073 5.7961693,5.7961693 8.117073,3.4752657 11.180199,1.6557192 14,0.92296042 c 3.405892,-0.8850614 5.522269,-0.88989219 8.704531,-0.0198687 2.312492,0.63223028 5.521237,2.25744418 7.130544,3.61158638 1.609306,1.3541422 3.654767,3.9978152 4.545468,5.8748289 0.890701,1.877013 1.612054,5.594743 1.603007,8.261622 -0.01074,3.1668 -0.800654,6.233526 -2.277056,8.840386 -1.243333,2.195334 -3.035931,4.14083 -3.98355,4.323325 C 28.691016,32.013571 28,31.525333 28,30.597494 c 0,-0.852035 0.898318,-3.022531 1.996262,-4.823324 1.116611,-1.83141 1.996262,-5.036767 1.996262,-7.27417 0,-2.204743 -0.874524,-5.434261 -1.948521,-7.195666 C 28.972316,9.5467178 26.913521,7.3342178 25.468903,6.3876674 24.024284,5.441117 20.936697,4.6666667 18.607598,4.6666667 c -2.361128,0 -5.653919,0.8383384 -7.442404,1.894822 C 9.4009715,7.6036408 7.0670752,10.295717 5.9787582,12.54388 4.8904412,14.792043 4,17.54735 4,18.666785 c 0,1.119435 1.1304761,4.16147 2.5121691,6.760077 1.381693,2.598608 2.2551353,5.14063 1.940983,5.64894 C 8.1389997,31.584111 7.4911847,32 7.0135632,32 z M 54.922445,31 c -4.991482,0 -7.024096,-0.417556 -8.05,-1.653695 C 45.955435,28.241376 45.5,24.973959 45.5,19.5 45.5,14.026041 45.955435,10.758624 46.872445,9.6536947 47.898349,8.4175556 49.930963,8 54.922445,8 c 3.86032,0 7.18383,0.5062753 7.877555,1.2 0.66,0.66 1.2,2.491298 1.2,4.069551 0,2.403846 -0.365157,2.81769 -2.25,2.55 C 60.5125,15.643798 59.5,14.825 59.5,14 59.5,12.888889 58.333333,12.5 55,12.5 l -4.5,0 0,7 0,7 4.5,0 c 3.905318,0 4.542229,-0.297341 4.819551,-2.25 C 60.02491,22.804043 60.828952,22 62.069551,22 63.586827,22 64,22.706298 64,25.3 c 0,1.815 -0.54,3.84 -1.2,4.5 -0.693725,0.693725 -4.017235,1.2 -7.877555,1.2 z m 22.011814,0 C 71.019403,31 69.906635,30.704791 68.556704,28.777494 67.504885,27.275812 67,24.266848 67,19.5 67,14.733152 67.504885,11.724188 68.556704,10.222506 69.906635,8.2952094 71.019403,8 76.934259,8 c 4.238693,0 7.212189,0.4732106 7.854581,1.25 0.56855,0.6875 1.172458,3.5 1.342016,6.25 l 0.308287,5 -7.219571,0.29381 L 72,21.087619 72,24.04381 C 72,26.883809 72.178102,27 76.531385,27 c 3.105407,0 4.712521,-0.472034 5.106989,-1.5 0.316582,-0.825 1.61033,-1.5 2.874995,-1.5 1.881091,0 2.199189,0.409315 1.748579,2.25 -0.302947,1.2375 -0.990918,2.8125 -1.528825,3.5 C 84.121095,30.532235 81.202667,31 76.934259,31 z m 0.135292,-14 c 4.685327,0 5.045332,-0.170529 4.75,-2.25 C 81.546857,12.829925 80.803493,12.455308 76.75,12.195209 72.2433,11.906029 72,12.021277 72,14.445209 72,16.848965 72.299704,17 77.069551,17 z M 114.46247,31 112,31 112,15.5 C 112,6.975 112.36399,0 112.80887,0 c 0.44488,0 1.62799,0.59895439 2.62914,1.3310098 1.35693,0.9922146 1.71123,2.2649143 1.39193,5 C 116.59435,8.3489544 116.73468,10 117.14178,10 c 0.4071,0 1.0183,-0.45 1.35822,-1 0.33992,-0.55 2.75148,-1 5.35902,-1 2.60754,0 5.28098,0.54 5.94098,1.2 0.77799,0.7779935 1.2,4.822222 1.2,11.5 l 0,10.3 -2.58485,0 -2.58485,0 0.18493,-8.25 c 0.10172,-4.5375 0.1399,-8.838374 0.0849,-9.557498 -0.0696,-0.908724 -1.39629,-1.213714 -4.35008,-1 L 117.5,12.5 l -0.28753,9.25 c -0.28238,9.084568 -0.33156,9.25 -2.75,9.25 z M 18.356722,21.792183 c -1.066463,0.1607 -2.258006,-0.0268 -2.647873,-0.416667 C 15.318982,20.985649 15,19.646991 15,18.400721 c 0,-1.427575 0.781231,-2.513899 2.111507,-2.936112 1.353424,-0.42956 2.693681,-0.08799 3.733049,0.951376 1.241467,1.241466 1.367186,2.02733 0.536366,3.352779 -0.596847,0.95218 -1.957738,1.862718 -3.0242,2.023419 z"
       id="path3067"
       inkscape:connector-curvature="0" />
    <path
       style="fill:#979da1"
       d="m 14.75,34.206776 c -0.819113,1.04128 -1.916539,1.338982 -3.183624,0.863632 -1.326604,-0.497678 -1.56205,-0.955047 -0.75,-1.456922 0.650993,-0.402336 1.173618,-1.942462 1.161388,-3.422503 C 11.965534,28.710942 11.075541,26.375 10,25 8.7804345,23.440875 8.0361032,20.9215 8.0222358,18.305764 c -0.015632,-2.948615 0.6557781,-4.982475 2.2607602,-6.848378 1.642731,-1.9097887 3.548677,-2.7968021 6.796038,-3.1628267 3.848173,-0.4337448 4.980045,-0.1157277 7.682999,2.1586587 1.908988,1.606307 3.420301,4.001786 3.799296,6.022004 0.411444,2.193183 0.09392,4.336236 -0.917093,6.189719 -0.850537,1.559282 -2.105861,3.880901 -2.789608,5.159153 -0.99652,1.862973 -0.987935,2.732801 0.04327,4.384019 1.056015,1.690948 1.046033,2.214009 -0.05573,2.920151 -0.898142,0.575638 -1.948404,0.130127 -3.174643,-1.346653 -1.257729,-1.514705 -1.652346,-3.107515 -1.258169,-5.078403 0.315868,-1.579338 1.477981,-4.14062 2.582474,-5.691737 C 24.096324,21.460355 25,19.348354 25,18.318136 25,17.287918 24.299483,15.444885 23.443296,14.222506 22.371304,12.692023 20.86271,12 18.598284,12 16.598433,12 14.612523,12.770676 13.529988,13.966864 12.550994,15.048639 11.75,17.043651 11.75,18.400223 c 0,1.356572 0.95625,3.68217 2.125,5.167995 1.16875,1.485825 2.125,4.129805 2.125,5.875511 0,1.745706 -0.5625,3.889078 -1.25,4.763047 z M 91.5,36 89,36 89,22 89,8 91.5,8 c 1.375,0 2.5,0.54 2.5,1.2 0,0.933333 0.266667,0.933333 1.2,0 0.66,-0.66 3.327857,-1.2 5.92857,-1.2 2.96537,0 5.31453,0.5859589 6.3,1.5714286 C 108.60643,10.749288 109,13.235931 109,19.5 c 0,6.264069 -0.39357,8.750712 -1.57143,9.928571 C 106.52456,30.332588 104.16069,31 101.86283,31 99.665958,31 96.998101,30.534167 95.934259,29.964816 94.191462,29.0321 94,29.279561 94,32.464816 94,35.569012 93.695215,36 91.5,36 z M 100.25,26.921053 104,27 l 0,-7.5 0,-7.5 -3.41821,0 c -1.880019,0 -4.130019,0.273145 -5.000003,0.606989 C 94.370665,13.07174 94,14.692545 94,19.523655 c 0,4.11207 0.435365,6.485352 1.25,6.814064 0.6875,0.277413 2.9375,0.539913 5,0.583334 z M 7.0959706,32 C 6.6636731,32 5.6230553,31.2125 4.7834866,30.25 3.9439179,29.2875 2.6848878,27.396965 1.9856419,26.04881 1.286396,24.700656 0.71428571,21.315124 0.71428571,18.525406 c 0,-2.789719 0.72312309,-6.470581 1.60694009,-8.179695 C 3.2050429,8.6365975 5.329011,6.0594982 7.0411551,4.618824 8.7532991,3.1781498 11.356962,1.7369624 12.827072,1.4161854 c 1.47011,-0.320777 3.283617,-0.77501447 4.030015,-1.00941661 0.746398,-0.23440214 3.217273,0.0747102 5.490833,0.68691621 2.273559,0.612206 5.427807,2.034556 7.00944,3.1607777 1.581632,1.1262217 3.713375,3.8921947 4.737206,6.1466063 1.02383,2.254412 1.871393,5.800884 1.883472,7.88105 0.01208,2.080165 -0.605006,5.230165 -1.371301,7 -0.766294,1.769834 -2.086,4.117881 -2.932679,5.217881 -1.227274,1.594467 -1.794329,1.7486 -2.796585,0.760153 -1.008142,-0.994253 -0.823393,-2.011645 0.93268,-5.136155 1.20662,-2.146891 2.188169,-5.631148 2.186109,-7.760153 C 31.994206,16.23873 31.115689,13.06195 30.044003,11.304334 28.972316,9.5467178 26.966143,7.3686969 25.58584,6.4642877 24.205537,5.5598785 21.371554,4.6091026 19.288099,4.3514523 16.719361,4.0337895 14.373376,4.4986497 12,5.7955995 10.075,6.8475306 7.4949027,9.4613562 6.2664504,11.604101 c -1.2284522,2.142744 -2.2409522,5.066376 -2.25,6.49696 -0.00905,1.430583 1.1140257,4.727194 2.4957187,7.325801 1.381693,2.598608 2.2551353,5.14063 1.940983,5.64894 C 8.1389997,31.584111 7.5282681,32 7.0959706,32 z M 54.922445,31 c -4.991482,0 -7.024096,-0.417556 -8.05,-1.653695 C 45.955435,28.241376 45.5,24.973959 45.5,19.5 45.5,14.026041 45.955435,10.758624 46.872445,9.6536947 47.898349,8.4175556 49.930963,8 54.922445,8 c 3.86032,0 7.18383,0.5062753 7.877555,1.2 0.66,0.66 1.2,2.491298 1.2,4.069551 0,2.403846 -0.365157,2.81769 -2.25,2.55 C 60.5125,15.643798 59.5,14.825 59.5,14 59.5,12.888889 58.333333,12.5 55,12.5 l -4.5,0 0,7 0,7 4.5,0 c 3.905318,0 4.542229,-0.297341 4.819551,-2.25 C 60.02491,22.804043 60.828952,22 62.069551,22 63.586827,22 64,22.706298 64,25.3 c 0,1.815 -0.54,3.84 -1.2,4.5 -0.693725,0.693725 -4.017235,1.2 -7.877555,1.2 z m 22.011814,0 C 71.019403,31 69.906635,30.704791 68.556704,28.777494 67.504885,27.275812 67,24.266848 67,19.5 67,14.733152 67.504885,11.724188 68.556704,10.222506 69.906635,8.2952094 71.019403,8 76.934259,8 c 4.238693,0 7.212189,0.4732106 7.854581,1.25 0.56855,0.6875 1.172458,3.5 1.342016,6.25 l 0.308287,5 -7.219571,0.29381 L 72,21.087619 72,24.04381 C 72,26.883809 72.178102,27 76.531385,27 c 3.105407,0 4.712521,-0.472034 5.106989,-1.5 0.316582,-0.825 1.61033,-1.5 2.874995,-1.5 1.881091,0 2.199189,0.409315 1.748579,2.25 -0.302947,1.2375 -0.990918,2.8125 -1.528825,3.5 C 84.121095,30.532235 81.202667,31 76.934259,31 z m 0.135292,-14 c 4.685327,0 5.045332,-0.170529 4.75,-2.25 C 81.546857,12.829925 80.803493,12.455308 76.75,12.195209 72.2433,11.906029 72,12.021277 72,14.445209 72,16.848965 72.299704,17 77.069551,17 z M 114.46247,31 112,31 112,15.5 C 112,6.975 112.36399,0 112.80887,0 c 0.44488,0 1.62799,0.59895439 2.62914,1.3310098 1.35693,0.9922146 1.71123,2.2649143 1.39193,5 C 116.59435,8.3489544 116.73468,10 117.14178,10 c 0.4071,0 1.0183,-0.45 1.35822,-1 0.33992,-0.55 2.75148,-1 5.35902,-1 2.60754,0 5.28098,0.54 5.94098,1.2 0.77799,0.7779935 1.2,4.822222 1.2,11.5 l 0,10.3 -2.58485,0 -2.58485,0 0.18493,-8.25 c 0.10172,-4.5375 0.1399,-8.838374 0.0849,-9.557498 -0.0696,-0.908724 -1.39629,-1.213714 -4.35008,-1 L 117.5,12.5 l -0.28753,9.25 c -0.28238,9.084568 -0.33156,9.25 -2.75,9.25 z M 18.587261,22 c -0.738304,0 -1.933877,-0.71272 -2.656828,-1.583823 -0.929473,-1.119947 -1.017632,-2.054385 -0.301001,-3.19048 0.557399,-0.883663 1.491572,-1.766032 2.075939,-1.960821 0.584368,-0.194789 1.788826,0.372178 2.676575,1.259927 1.224122,1.224122 1.364466,2.080514 0.580888,3.544643 C 20.394573,21.131251 19.325565,22 18.587261,22 z"
       id="path3065"
       inkscape:connector-curvature="0" />
    <path
       style="fill:#ef5c56"
       d="m 14.75,34.206776 c -0.819113,1.04128 -1.916539,1.338982 -3.183624,0.863632 -1.326604,-0.497678 -1.56205,-0.955047 -0.75,-1.456922 0.650993,-0.402336 1.173618,-1.942462 1.161388,-3.422503 C 11.965534,28.710942 11.075541,26.375 10,25 8.7804345,23.440875 8.0361032,20.9215 8.0222358,18.305764 c -0.015632,-2.948615 0.6557781,-4.982475 2.2607602,-6.848378 1.642731,-1.9097887 3.548677,-2.7968021 6.796038,-3.1628267 3.848173,-0.4337448 4.980045,-0.1157277 7.682999,2.1586587 1.908988,1.606307 3.420301,4.001786 3.799296,6.022004 0.411444,2.193183 0.09392,4.336236 -0.917093,6.189719 -0.850537,1.559282 -2.105861,3.880901 -2.789608,5.159153 -0.99652,1.862973 -0.987935,2.732801 0.04327,4.384019 1.056015,1.690948 1.046033,2.214009 -0.05573,2.920151 -0.898142,0.575638 -1.948404,0.130127 -3.174643,-1.346653 -1.257729,-1.514705 -1.652346,-3.107515 -1.258169,-5.078403 0.315868,-1.579338 1.477981,-4.14062 2.582474,-5.691737 C 24.096324,21.460355 25,19.348354 25,18.318136 25,17.287918 24.299483,15.444885 23.443296,14.222506 22.371304,12.692023 20.86271,12 18.598284,12 16.598433,12 14.612523,12.770676 13.529988,13.966864 12.550994,15.048639 11.75,17.043651 11.75,18.400223 c 0,1.356572 0.95625,3.68217 2.125,5.167995 1.16875,1.485825 2.125,4.129805 2.125,5.875511 0,1.745706 -0.5625,3.889078 -1.25,4.763047 z M 92.166667,36 c -1.008334,0 -2.020834,-0.185997 -2.25,-0.413327 -0.229167,-0.22733 -0.279815,-6.52733 -0.112551,-14 C 90.088158,8.8968075 90.236672,8 92.054116,8 93.124352,8 94,8.4658327 94,9.0351838 c 0,0.7135783 0.600925,0.7135783 1.934259,0 C 96.998101,8.4658327 99.672584,8 101.87755,8 c 3.00921,0 4.39727,0.5542797 5.56575,2.222506 C 108.49512,11.724188 109,14.733152 109,19.5 c 0,4.766848 -0.50488,7.775812 -1.5567,9.277494 C 106.23715,30.499508 104.89928,31 101.50231,31 99.09096,31 96.839919,30.55 96.5,30 96.160081,29.45 95.458524,29 94.940983,29 94.423442,29 94,30.575 94,32.5 94,35.227273 93.595238,36 92.166667,36 z m 7.194959,-9 c 3.111984,0 4.604444,-0.469208 5.031384,-1.581787 0.33385,-0.869984 0.6001,-3.682484 0.59168,-6.25 -0.008,-2.567517 -0.39052,-5.259905 -0.84911,-5.983084 -0.53882,-0.849693 -2.39076,-1.203475 -5.234689,-1 L 94.5,12.5 94.195978,18.388028 c -0.167213,3.238416 -0.06884,6.500916 0.218615,7.25 C 94.746649,26.503352 96.550605,27 99.361626,27 z M 7.0959706,32 C 6.6636731,32 5.6230553,31.2125 4.7834866,30.25 3.9439179,29.2875 2.6848878,27.396965 1.9856419,26.04881 1.286396,24.700656 0.71428571,21.315124 0.71428571,18.525406 c 0,-2.789719 0.72312309,-6.470581 1.60694009,-8.179695 C 3.2050429,8.6365975 5.329011,6.0594982 7.0411551,4.618824 8.7532991,3.1781498 11.356962,1.7369624 12.827072,1.4161854 c 1.47011,-0.320777 3.283617,-0.77501447 4.030015,-1.00941661 0.746398,-0.23440214 3.217273,0.0747102 5.490833,0.68691621 2.273559,0.612206 5.427807,2.034556 7.00944,3.1607777 1.581632,1.1262217 3.713375,3.8921947 4.737206,6.1466063 1.02383,2.254412 1.871393,5.800884 1.883472,7.88105 0.01208,2.080165 -0.605006,5.230165 -1.371301,7 -0.766294,1.769834 -2.086,4.117881 -2.932679,5.217881 -1.227274,1.594467 -1.794329,1.7486 -2.796585,0.760153 -1.008142,-0.994253 -0.823393,-2.011645 0.93268,-5.136155 1.20662,-2.146891 2.188169,-5.631148 2.186109,-7.760153 C 31.994206,16.23873 31.115689,13.06195 30.044003,11.304334 28.972316,9.5467178 26.966143,7.3686969 25.58584,6.4642877 24.205537,5.5598785 21.371554,4.6091026 19.288099,4.3514523 16.719361,4.0337895 14.373376,4.4986497 12,5.7955995 10.075,6.8475306 7.4949027,9.4613562 6.2664504,11.604101 c -1.2284522,2.142744 -2.2409522,5.066376 -2.25,6.49696 -0.00905,1.430583 1.1140257,4.727194 2.4957187,7.325801 1.381693,2.598608 2.2551353,5.14063 1.940983,5.64894 C 8.1389997,31.584111 7.5282681,32 7.0959706,32 z M 55,31 C 51.008658,31 48.642276,30.499419 47.571429,29.428571 46.393569,28.250712 46,25.764069 46,19.5 46,13.235931 46.393569,10.749288 47.571429,9.5714286 48.67228,8.4705767 51.057408,8 55.536245,8 60.833744,8 62.107073,8.3315506 62.964816,9.9342585 63.534167,10.998101 64,12.798101 64,13.934259 64,15.333333 63.35455,16 62,16 c -1.333333,0 -2,-0.666667 -2,-2 0,-1.733333 -0.666667,-2 -5,-2 l -5,0 0,7.5 0,7.5 5,0 c 4.333333,0 5,-0.266667 5,-2 0,-1.333333 0.666667,-2 2,-2 1.45098,0 2,0.666667 2,2.428571 0,1.335715 -0.707143,3.135715 -1.571429,4 C 61.357724,30.499419 58.991342,31 55,31 z m 22.49113,0 c -3.697524,0 -6.875091,-0.560274 -8.05,-1.419389 C 67.785479,28.36997 67.5,26.921887 67.5,19.734306 67.5,14.061753 67.948588,10.766874 68.872445,9.6536947 69.883581,8.4353504 71.905035,8 76.551016,8 80.950525,8 83.332254,8.4751115 84.428571,9.5714286 85.432022,10.574879 86,12.924242 86,16.071429 L 86,21 78.393011,21 c -6.525736,0 -7.520712,0.224834 -7,1.581787 C 71.726855,23.451771 72,24.801771 72,25.581787 72,26.616976 73.350376,27 77,27 c 3.777778,0 5,-0.366667 5,-1.5 0,-0.833333 0.888889,-1.5 2,-1.5 1.42029,0 2,0.666667 2,2.3 0,1.265 -0.54,2.84 -1.2,3.5 -0.671419,0.671419 -3.89086,1.2 -7.30887,1.2 z M 76.638672,17 C 81.690755,17 82,16.855798 82,14.5 82,12.174624 81.658895,12 77.116577,12 72.701701,12 72.187301,12.239866 71.755249,14.5 71.29355,16.915225 71.459147,17 76.638672,17 z M 114.15342,30.819551 C 112.02755,31.135014 112,30.940352 112,15.601775 l 0,-15.53732659 2.22285,0.82228389 c 1.89998,0.7028513 2.1779,1.4447618 1.9134,5.1079934 -0.27716,3.8386485 -0.11785,4.2011823 1.52716,3.475396 1.01012,-0.4456725 3.75985,-1.0049386 6.11051,-1.2428135 2.52506,-0.255524 4.87792,0.068778 5.75,0.7925407 C 130.65184,9.9559404 131,12.692632 131,20.622445 131,30.267188 130.86142,31 129.03753,31 c -1.78781,0 -1.98807,-0.8233 -2.25,-9.25 L 126.5,12.5 123.62917,12.171918 c -1.57896,-0.180445 -3.96891,-0.05248 -5.31101,0.284364 -2.37523,0.596145 -2.43447,0.844416 -2.22575,9.328082 0.20263,8.235767 0.0959,8.73323 -1.93899,9.035187 z M 18.587261,22 c -0.738304,0 -1.933877,-0.71272 -2.656828,-1.583823 -0.929473,-1.119947 -1.017632,-2.054385 -0.301001,-3.19048 0.557399,-0.883663 1.491572,-1.766032 2.075939,-1.960821 0.584368,-0.194789 1.788826,0.372178 2.676575,1.259927 1.224122,1.224122 1.364466,2.080514 0.580888,3.544643 C 20.394573,21.131251 19.325565,22 18.587261,22 z"
       id="path3063"
       inkscape:connector-curvature="0" />
    <path
       style="fill:#7c8388"
       d="m 92.166667,36 c -1.008334,0 -2.020834,-0.185997 -2.25,-0.413327 -0.229167,-0.22733 -0.279815,-6.52733 -0.112551,-14 C 90.088158,8.8968075 90.236672,8 92.054116,8 93.124352,8 94,8.4658327 94,9.0351838 c 0,0.7135783 0.600925,0.7135783 1.934259,0 C 96.998101,8.4658327 99.672584,8 101.87755,8 c 3.00921,0 4.39727,0.5542797 5.56575,2.222506 C 108.49512,11.724188 109,14.733152 109,19.5 c 0,4.766848 -0.50488,7.775812 -1.5567,9.277494 C 106.23715,30.499508 104.89928,31 101.50231,31 99.09096,31 96.839919,30.55 96.5,30 96.160081,29.45 95.458524,29 94.940983,29 94.423442,29 94,30.575 94,32.5 94,35.227273 93.595238,36 92.166667,36 z m 7.194959,-9 c 3.111984,0 4.604444,-0.469208 5.031384,-1.581787 0.33385,-0.869984 0.6001,-3.682484 0.59168,-6.25 -0.008,-2.567517 -0.39052,-5.259905 -0.84911,-5.983084 -0.53882,-0.849693 -2.39076,-1.203475 -5.234689,-1 L 94.5,12.5 94.195978,18.388028 c -0.167213,3.238416 -0.06884,6.500916 0.218615,7.25 C 94.746649,26.503352 96.550605,27 99.361626,27 z M 55,31 C 51.008658,31 48.642276,30.499419 47.571429,29.428571 46.393569,28.250712 46,25.764069 46,19.5 46,13.235931 46.393569,10.749288 47.571429,9.5714286 48.67228,8.4705767 51.057408,8 55.536245,8 60.833744,8 62.107073,8.3315506 62.964816,9.9342585 63.534167,10.998101 64,12.798101 64,13.934259 64,15.333333 63.35455,16 62,16 c -1.333333,0 -2,-0.666667 -2,-2 0,-1.733333 -0.666667,-2 -5,-2 l -5,0 0,7.5 0,7.5 5,0 c 4.333333,0 5,-0.266667 5,-2 0,-1.333333 0.666667,-2 2,-2 1.45098,0 2,0.666667 2,2.428571 0,1.335715 -0.707143,3.135715 -1.571429,4 C 61.357724,30.499419 58.991342,31 55,31 z m 22.49113,0 c -3.697524,0 -6.875091,-0.560274 -8.05,-1.419389 C 67.785479,28.36997 67.5,26.921887 67.5,19.734306 67.5,14.061753 67.948588,10.766874 68.872445,9.6536947 69.883581,8.4353504 71.905035,8 76.551016,8 80.950525,8 83.332254,8.4751115 84.428571,9.5714286 85.432022,10.574879 86,12.924242 86,16.071429 L 86,21 78.393011,21 c -6.525736,0 -7.520712,0.224834 -7,1.581787 C 71.726855,23.451771 72,24.801771 72,25.581787 72,26.616976 73.350376,27 77,27 c 3.777778,0 5,-0.366667 5,-1.5 0,-0.833333 0.888889,-1.5 2,-1.5 1.42029,0 2,0.666667 2,2.3 0,1.265 -0.54,2.84 -1.2,3.5 -0.671419,0.671419 -3.89086,1.2 -7.30887,1.2 z M 76.638672,17 C 81.690755,17 82,16.855798 82,14.5 82,12.174624 81.658895,12 77.116577,12 72.701701,12 72.187301,12.239866 71.755249,14.5 71.29355,16.915225 71.459147,17 76.638672,17 z M 114.15342,30.819551 C 112.02755,31.135014 112,30.940352 112,15.601775 l 0,-15.53732659 2.22285,0.82228389 c 1.89998,0.7028513 2.1779,1.4447618 1.9134,5.1079934 -0.27716,3.8386485 -0.11785,4.2011823 1.52716,3.475396 1.01012,-0.4456725 3.75985,-1.0049386 6.11051,-1.2428135 2.52506,-0.255524 4.87792,0.068778 5.75,0.7925407 C 130.65184,9.9559404 131,12.692632 131,20.622445 131,30.267188 130.86142,31 129.03753,31 c -1.78781,0 -1.98807,-0.8233 -2.25,-9.25 L 126.5,12.5 123.62917,12.171918 c -1.57896,-0.180445 -3.96891,-0.05248 -5.31101,0.284364 -2.37523,0.596145 -2.43447,0.844416 -2.22575,9.328082 0.20263,8.235767 0.0959,8.73323 -1.93899,9.035187 z"
       id="path3061"
       inkscape:connector-curvature="0" />
    <path
       style="fill:#525b62"
       d="M 92.076618,36 C 90.073347,36 90,35.505512 90,22 90,8.8695652 90.119048,8 91.916667,8 c 1.054166,0 2.105987,0.5625 2.337378,1.25 0.332089,0.986686 0.755378,0.973813 2.009429,-0.061109 0.928489,-0.7662483 3.375892,-1.1818207 5.889236,-1 3.39539,0.24563 4.57888,0.8372828 5.62312,2.811109 0.88183,1.666838 1.18618,4.96988 0.91323,9.911159 -0.31549,5.711471 -0.82929,7.718212 -2.24035,8.75 C 105.44168,30.397522 103.22888,31 101.53138,31 c -1.697504,0 -4.086495,-0.700517 -5.308874,-1.556704 -1.222378,-0.856187 -2.268099,-1.193687 -2.323823,-0.75 -0.05572,0.443687 -0.02125,2.269204 0.07662,4.056704 0.146751,2.680427 -0.186,3.25 -1.898683,3.25 z M 99.7398,26.805208 104.5,26.5 l 0,-7 0,-7 -5,0 -5,0 -0.304022,5.888028 c -0.167213,3.238416 -0.0593,6.52576 0.2398,7.305208 0.388567,1.012589 1.902813,1.330046 5.304022,1.111972 z M 55,31 C 51.008658,31 48.642276,30.499419 47.571429,29.428571 46.393569,28.250712 46,25.764069 46,19.5 46,13.235931 46.393569,10.749288 47.571429,9.5714286 48.642276,8.5005807 51.008658,8 55,8 58.991342,8 61.357724,8.5005807 62.428571,9.5714286 63.292857,10.435714 64,12.235714 64,13.571429 64,15.333333 63.45098,16 62,16 c -1.333333,0 -2,-0.666667 -2,-2 0,-1.733333 -0.666667,-2 -5,-2 l -5,0 0,7.5 0,7.5 5,0 c 4.333333,0 5,-0.266667 5,-2 0,-1.333333 0.666667,-2 2,-2 1.45098,0 2,0.666667 2,2.428571 0,1.335715 -0.707143,3.135715 -1.571429,4 C 61.357724,30.499419 58.991342,31 55,31 z M 77.178571,30.96959 C 74.055357,30.952867 70.7125,30.480506 69.75,29.919901 68.279421,29.063367 68,27.397316 68,19.485494 68,11.20049 68.232174,9.9461116 69.934259,9.0351838 70.998101,8.4658327 74.303356,8 77.279271,8 81.25113,8 83.13014,8.4863215 84.345012,9.8287407 85.38781,10.981019 86,13.38541 86,16.328741 L 86,21 78.5,21 c -5.807769,0 -7.5,0.319992 -7.5,1.418213 0,0.780016 0.273145,2.130016 0.606989,3 C 72.046046,26.562378 73.567693,27 77.106989,27 80.789665,27 82,26.62896 82,25.5 82,24.666667 82.888889,24 84,24 c 1.308642,0 2,0.666667 2,1.928571 0,1.060715 -0.707143,2.635715 -1.571429,3.5 -1.068666,1.068666 -3.388229,1.5617 -7.25,1.54102 z M 76.968615,18 C 81.892376,18 82,17.935828 82,15 c 0,-2.935828 -0.107624,-3 -5.031385,-3 -3.549851,0 -5.200876,0.441688 -5.606989,1.5 -0.316582,0.825 -0.316582,2.175 0,3 0.406113,1.058312 2.057138,1.5 5.606989,1.5 z M 113.96247,31 C 112.09931,31 112,30.237258 112,15.926676 c 0,-13.8154779 0.14603,-15.04559283 1.75,-14.7410057 1.3198,0.2506245 1.82511,1.5021829 2.05552,5.0911412 0.29937,4.6629935 0.34915,4.7282585 2.47251,3.2410055 C 119.46987,8.6830177 122.11274,8 124.15108,8 c 2.03833,0 4.41321,0.7071429 5.27749,1.5714286 C 130.64611,10.788969 131,13.378788 131,21.071429 131,30.27005 130.85572,31 129.03753,31 c -1.78781,0 -1.98807,-0.8233 -2.25,-9.25 L 126.5,12.5 l -5,0 -5,0 -0.28753,9.25 c -0.26193,8.4267 -0.46219,9.25 -2.25,9.25 z"
       id="path3059"
       inkscape:connector-curvature="0" />
    <path
       style="fill:#364149"
       d="M 91.745361,35.810523 C 90.151637,36.117446 90,34.923961 90,22.073324 90,8.741455 90.103717,8 91.968615,8 c 1.339038,0 1.784533,0.4797111 1.393011,1.5 -0.316582,0.825 -0.189959,1.485688 0.281385,1.468197 0.471344,-0.01749 1.730497,-0.692492 2.798119,-1.5000004 C 97.508751,8.6606885 99.675835,8 101.25687,8 c 1.58104,0 3.71245,0.448396 4.73647,0.9964356 1.29556,0.6933647 2.06436,2.6172374 2.52765,6.3253054 0.36619,2.930878 0.27388,7.319982 -0.20515,9.753564 -0.79143,4.020734 -1.20873,4.508764 -4.57075,5.345528 -2.70733,0.673821 -4.443557,0.548304 -6.472444,-0.467912 -1.524955,-0.763811 -3.14897,-1.566127 -3.608921,-1.782925 -0.459951,-0.216799 -0.687039,1.338001 -0.504639,3.455111 0.26093,3.028616 -0.04048,3.920952 -1.413725,4.185416 z M 100,26.760519 104.5,26.5 l 0,-6.891014 c 0,-5.352719 -0.37318,-7.126407 -1.6717,-7.945493 -1.11614,-0.704046 -2.943953,-0.740265 -5.499998,-0.108987 L 93.5,12.5 93.198157,18.908942 c -0.209183,4.441517 0.0978,6.670361 1,7.26052 C 94.914171,26.637829 97.525,26.903805 100,26.760519 z M 55.222506,31 c -2.705538,0 -5.741374,-0.675128 -7,-1.556704 C 46.226248,28.045062 46,27.032848 46,19.5 c 0,-7.532848 0.226248,-8.545062 2.222506,-9.943296 1.306171,-0.9148776 4.295334,-1.5503906 7.25,-1.5413912 2.765122,0.00842 5.583218,0.3682918 6.262436,0.7997107 0.679218,0.4314189 1.522968,2.2245285 1.875,3.9846875 C 64.163942,15.569708 63.973637,16 62.194551,16 60.824323,16 60.032574,15.249922 59.819551,13.75 59.542229,11.797341 58.905318,11.5 55,11.5 l -4.5,0 -0.292064,7.75 -0.292065,7.75 5.042065,0 C 59.333333,27 60,26.735558 60,25 c 0,-1.333333 0.666667,-2 2,-2 1.333333,0 2,0.666667 2,2 0,1.1 -0.9,2.9 -2,4 -1.441827,1.441827 -3.333333,2 -6.777494,2 z M 78.329464,30.654886 C 75.123259,30.816587 71.825,30.667913 71,30.3245 c -0.825,-0.343414 -1.830609,-1.119413 -2.234687,-1.724444 -0.404078,-0.605031 -0.741578,-4.780413 -0.75,-9.278627 -0.01145,-6.117192 0.38076,-8.574645 1.556116,-9.7500004 C 70.614035,8.5288221 72.969697,8 76.571429,8 80.666667,8 82.491228,8.4912281 84,10 c 1.416113,1.416113 2,3.333333 2,6.567094 l 0,4.567095 -7.25,-0.235142 -7.25,-0.235142 0,2.918047 c 0,2.815136 0.185154,2.928708 5.25,3.220308 4.208371,0.242289 5.25,-0.0057 5.25,-1.25 C 82,24.666667 82.858963,24 84,24 c 1.243929,0 1.994211,0.661562 1.984687,1.75 -0.0084,0.9625 -0.422663,2.393699 -0.920536,3.180442 -0.574585,0.907964 -3.034475,1.537828 -6.734687,1.724444 z M 76.563358,18 l 5.563359,0 -0.313359,-3.25 c -0.287239,-2.979109 -0.631741,-3.276216 -4.133146,-3.564526 -2.100883,-0.172989 -4.463383,0.219611 -5.25,0.872445 C 71.643595,12.710753 71,14.314789 71,15.622445 71,17.840945 71.37218,18 76.563358,18 z m 37.899112,13 c -0.80436,0 -1.47508,-0.1125 -1.4905,-0.25 -0.0154,-0.1375 -0.12791,-6.898884 -0.25,-15.025298 C 112.5316,3.0527757 112.71354,0.9898746 114,1.2336962 c 1.02773,0.1947833 1.59596,1.7769962 1.80479,5.0252983 0.16764,2.607553 0.61764,4.7266935 1,4.7092025 0.38237,-0.01749 1.56872,-0.692492 2.63634,-1.5000004 1.06762,-0.8075081 3.31762,-1.4613059 5,-1.4528838 1.68238,0.00842 3.73387,0.4419431 4.55887,0.9633803 1.17434,0.7422381 1.5,3.1766639 1.5,11.2131669 0,8.97825 -0.21938,10.30833 -1.75,10.609944 -1.56862,0.309103 -1.75,-0.645418 -1.75,-9.209428 0,-9.312737 -0.0621,-9.569862 -2.45709,-10.170962 -1.3514,-0.339179 -3.7139,-0.198852 -5.25,0.311839 -2.75564,0.916136 -2.79675,1.050896 -3.08044,10.097637 C 115.98519,29.07891 115.61853,31 114.46247,31 z"
       id="path3057"
       inkscape:connector-curvature="0" />
  </g>
</svg>
