<?xml version="1.0" encoding="UTF-8" standalone="no"?>
<!-- Created with Inkscape (http://www.inkscape.org/) -->

<svg
   xmlns:dc="http://purl.org/dc/elements/1.1/"
   xmlns:cc="http://creativecommons.org/ns#"
   xmlns:rdf="http://www.w3.org/1999/02/22-rdf-syntax-ns#"
   xmlns:svg="http://www.w3.org/2000/svg"
   xmlns="http://www.w3.org/2000/svg"
   xmlns:sodipodi="http://sodipodi.sourceforge.net/DTD/sodipodi-0.dtd"
   xmlns:inkscape="http://www.inkscape.org/namespaces/inkscape"
   id="svg2"
   version="1.1"
   inkscape:version="0.48.4 r9939"
   width="499"
   height="216"
   sodipodi:docname="openneb.png">
  <metadata
     id="metadata8">
    <rdf:RDF>
      <cc:Work
         rdf:about="">
        <dc:format>image/svg+xml</dc:format>
        <dc:type
           rdf:resource="http://purl.org/dc/dcmitype/StillImage" />
        <dc:title></dc:title>
      </cc:Work>
    </rdf:RDF>
  </metadata>
  <defs
     id="defs6" />
  <sodipodi:namedview
     pagecolor="#ffffff"
     bordercolor="#666666"
     borderopacity="1"
     objecttolerance="10"
     gridtolerance="10"
     guidetolerance="10"
     inkscape:pageopacity="0"
     inkscape:pageshadow="2"
     inkscape:window-width="1280"
     inkscape:window-height="728"
     id="namedview4"
     showgrid="false"
     inkscape:zoom="0.76953908"
     inkscape:cx="249.5"
     inkscape:cy="104.10156"
     inkscape:window-x="0"
     inkscape:window-y="25"
     inkscape:window-maximized="1"
     inkscape:current-layer="svg2" />
  <g
     id="g3046"
     transform="translate(-9.096355,3.8984375)">
    <path
       style="fill:#b0deeb"
       d="m 98.532876,182.34896 0.266603,-26.25 3.960121,-0.32289 c 2.74486,-0.22381 4.3152,0.16272 5.11724,1.25957 1.0386,1.42037 1.4524,1.42847 4.03988,0.079 3.6094,-1.88237 12.39372,-1.95582 16.73967,-0.13996 11.25644,4.70324 14.76524,22.72083 6.3019,32.36005 -6.05849,6.90023 -14.48207,8.88919 -22.40881,5.29111 l -4.25,-1.92915 0,7.95111 0,7.95111 -5.0166,0 -5.016608,0 0.266604,-26.25 z m 27.843524,1.32692 c 2.39744,-2.39743 2.92308,-3.7641 2.92308,-7.6 0,-3.98552 -0.50263,-5.17955 -3.4,-8.07692 -2.64144,-2.64144 -4.22549,-3.4 -7.1,-3.4 -5.20914,0 -10.5,5.2655 -10.5,10.44966 0,4.16805 2.18,8.97335 4.74998,10.47023 0.96251,0.56061 3.69714,1.03298 6.07694,1.0497 3.47214,0.0244 4.90438,-0.54705 7.25,-2.89267 z m -69.645952,11.16665 c -22.869459,-8.18275 -24.867277,-38.87412 -3.232254,-49.6553 6.107663,-3.04358 16.547302,-3.55688 22.421602,-1.10245 10.381079,4.3375 16.820752,14.11951 16.750978,25.44513 -0.02256,3.66227 -0.734413,8.17954 -1.608713,10.20861 -2.159942,5.01278 -8.319445,11.59372 -13.164956,14.06572 -5.639352,2.87698 -14.775328,3.32513 -21.166657,1.03829 z m 16.607141,-10.49357 c 6.078924,-3.06542 9.254839,-9.10973 8.69154,-16.54147 -0.67962,-8.96641 -6.222053,-14.33541 -15.466212,-14.98225 -4.819234,-0.33721 -6.332932,-0.0163 -9.239641,1.95902 -5.643598,3.83517 -8.023797,8.2292 -8.023797,14.81254 0,4.75132 0.501266,6.39406 3.006272,9.85212 1.65345,2.28252 3.11595,4.15682 3.25,4.1651 0.134051,0.008 2.043728,0.66353 4.243728,1.4561 5.599776,2.01739 8.403569,1.86804 13.53811,-0.72116 z m 81.979871,10.23612 c -7.24464,-3.38808 -10.3765,-7.25165 -12.11988,-14.95147 -1.874,-8.27675 3.90821,-19.37543 11.81978,-22.68752 5.11813,-2.14265 14.11073,-1.69449 18.75255,0.93455 6.37434,3.61031 11.13928,12.61812 10.33864,19.54454 l -0.30907,2.67378 -14.75,0.27673 c -8.1125,0.15221 -14.75,0.68205 -14.75,1.17742 0,0.49538 1.18569,1.83335 2.63486,2.97327 3.1376,2.46804 10.03367,2.79053 12.92401,0.60438 1.17743,-0.89056 4.23957,-1.48071 7.78318,-1.5 l 5.84205,-0.0318 -1.89001,3.23616 c -4.9201,8.42437 -17.13223,12.02625 -26.27611,7.74996 z m 17.98202,-24.33113 c 0,-2.407 -3.82321,-4.88209 -8.20942,-5.31466 -4.7867,-0.47207 -8.31247,1.00099 -10.55456,4.40967 l -1.47996,2.25 10.12197,0 c 7.81225,0 10.12197,-0.30692 10.12197,-1.34501 z m 119.08121,23.69819 c -3.77733,-1.88233 -6.16516,-3.97639 -8.26705,-7.25 -2.68637,-4.18391 -2.92531,-5.24922 -2.62337,-11.6961 0.36656,-7.82628 2.66141,-12.02946 9.05251,-16.58032 4.85477,-3.45691 15.77113,-3.76542 21.22713,-0.59991 6.39959,3.71298 11.13688,12.69365 10.33864,19.59937 l -0.30907,2.67378 -14.75,0.27673 c -8.1125,0.15221 -14.75,0.68205 -14.75,1.17742 0,0.49538 1.18569,1.83335 2.63486,2.97327 3.1376,2.46804 10.03367,2.79053 12.92401,0.60438 1.1713,-0.88593 4.23169,-1.48081 7.71681,-1.5 l 5.77568,-0.0318 -1.48976,2.88088 c -4.82044,9.3217 -17.07973,12.65517 -27.48039,7.4723 z m 18.91879,-24.35318 c -1.97097,-3.68279 -5.64284,-5.30036 -10.73013,-4.72695 -4.40446,0.49645 -8.26987,3.22505 -8.26987,5.83773 0,0.48907 4.51583,0.88922 10.03518,0.88922 9.72531,0 10.00214,-0.0618 8.96482,-2 z m 29.75,24.71742 c -4.42653,-2.27887 -4.75,-2.31846 -4.75,-0.58141 0,1.54251 -0.77612,1.86399 -4.5,1.86399 l -4.5,0 0,-26 0,-26 5,0 5,0 0,7.50194 0,7.50195 3.73519,-2.00195 c 8.94702,-4.79532 20.33991,-0.58653 25.46341,9.40676 1.59895,3.1187 1.92632,5.34193 1.61977,11 -0.63221,11.66874 -6.44863,18.21565 -17.10061,19.24829 -4.22523,0.4096 -6.12131,0.0407 -9.96776,-1.93957 z m 13.79261,-10.00042 c 5.01,-4.30941 4.10388,-15.69509 -1.48722,-18.68736 -1.05815,-0.5663 -3.93849,-1.02964 -6.40075,-1.02964 -3.77146,0 -4.88477,0.48478 -7.06575,3.07673 -2.0298,2.41228 -2.58889,4.15655 -2.58889,8.07692 0,4.1932 0.47176,5.47196 2.92308,7.92327 3.82663,3.82663 10.57163,4.12195 14.61953,0.64008 z m 26.45739,10.53145 c -2.27786,-1.13792 -4.28566,-3.30646 -5.75,-6.21034 -2.02016,-4.00611 -2.25,-5.92141 -2.25,-18.75 l 0,-14.28811 5,0 5,0 0.0147,12.75 c 0.0179,15.48858 0.79321,17.62145 6.56039,18.04781 3.09572,0.22886 4.47942,-0.19985 5.97661,-1.85175 1.68624,-1.86047 1.9923,-3.95149 2.27574,-15.54781 l 0.32752,-13.39825 4.92252,0 4.92252,0 0,20 0,20 -4.5,0 c -3.17847,0 -4.5,-0.40885 -4.5,-1.3922 0,-1.09979 -0.77954,-0.99477 -3.71144,0.5 -4.6313,2.36117 -9.74285,2.41148 -14.28856,0.14065 z m 61.00714,0.21398 c -8.42543,-3.78741 -12.39162,-10.65227 -11.83595,-20.48622 0.68329,-12.09261 7.7764,-18.98007 19.53897,-18.97247 4.00661,0.003 6.79081,0.61404 9.03984,1.9853 3.24072,1.97591 3.25,1.9759 3.25,-0.004 0,-1.68628 0.67777,-1.9853 4.5,-1.9853 l 4.5,0 0,20 0,20 -4.5,0 c -3.88272,0 -4.5,-0.28369 -4.5,-2.06809 0,-2.05262 -0.0236,-2.05127 -3.15837,0.18086 -4.04329,2.87908 -12.0111,3.51788 -16.83449,1.34966 z m 15.23225,-9.84672 c 0.95667,-0.72637 2.43208,-2.97852 3.2787,-5.00476 4.54308,-10.87312 -7.99099,-20.52122 -16.63079,-12.80156 -2.54904,2.27757 -3.23783,3.7833 -3.6386,7.9541 -0.45301,4.71456 -0.23967,5.39939 2.55156,8.19061 2.5674,2.5674 3.80418,3.0409 7.87282,3.0141 2.6548,-0.0175 5.60965,-0.62611 6.56631,-1.35249 z m -268.23939,-9.61571 0,-20 4.5,0 c 3.33333,0 4.5,0.38889 4.5,1.5 0,1.86637 0.94304,1.85765 3.44113,-0.0318 2.55536,-1.93278 11.81576,-1.90384 15.5916,0.0487 5.36869,2.77626 6.40159,6.30861 6.79357,23.23307 l 0.3532,15.25 -4.99164,0 -4.99163,0 -0.34812,-13.39636 c -0.29793,-11.46542 -0.62269,-13.69958 -2.2531,-15.5 -2.37333,-2.62082 -6.62895,-2.70576 -9.73423,-0.19429 -2.23778,1.80986 -2.37784,2.61743 -2.68826,15.5 l -0.32748,13.59068 -4.92252,0 -4.92252,0 0,-20 z m 42,-6 0,-26 6.25,0.0249 6.25,0.0249 10,17.72509 10,17.72509 0.27307,-17.75 0.27308,-17.75 4.97692,0 4.97693,0 0,26 0,26 -5.75,-0.0249 -5.75,-0.0249 -10,-17.72509 -10,-17.72509 -0.27307,17.75 -0.27308,17.75 -5.47692,0 -5.47693,0 0,-26 z m 184,0 0,-26 5,0 5,0 0,26 0,26 -5,0 -5,0 0,-26 z M 138.78741,153.9037 c -6.89186,-5.73512 -10.02384,-6.41614 -27.80457,-6.04589 l -16.344019,0.34034 -5.780122,-5.25285 -5.780121,-5.25285 2.191863,-3.5465 c 4.914094,-7.95118 14.591535,-13.66356 31.529039,-18.61091 6.05,-1.76718 11.14936,-3.33759 11.33191,-3.48981 0.18255,-0.15222 -1.10801,-5.36023 -2.86791,-11.57336 -2.65576,-9.375841 -3.12181,-12.512259 -2.74099,-18.446242 1.44645,-22.538752 21.71268,-39.377387 47.4379,-39.414801 9.46877,-0.01377 15.39838,1.649585 29.4171,8.252004 l 9.57801,4.510969 5.18314,-10.421858 c 8.0529,-16.192161 16.28155,-23.722127 31.50933,-28.833924 8.85577,-2.972785 22.66231,-3.42382 31.64395,-1.03375 12.62275,3.358994 24.71473,12.039753 30.48401,21.884291 1.38728,2.367209 3.25375,7.267988 4.14773,10.89062 2.45771,9.959337 1.41528,15.037749 -6.58687,32.089121 l -6.8495,14.595265 3.15609,0.526522 c 1.73586,0.289587 8.71078,1.444913 15.49984,2.56739 6.78905,1.122477 14.5656,2.885113 17.28122,3.916963 11.08871,4.21338 20.46229,12.38312 25.4762,22.20431 3.04378,5.96211 4.4065,18.2309 2.55395,22.99352 -1.00942,2.59503 -1.1158,2.62345 -4.8436,1.29389 -2.09633,-0.74768 -5.72401,-1.37917 -8.06151,-1.40331 -4.00089,-0.0413 -4.25,-0.21183 -4.25,-2.90903 0,-1.57583 -0.93266,-4.05083 -2.07258,-5.5 -1.96026,-2.49206 -2.55247,-2.63486 -10.92742,-2.63486 -8.37495,0 -8.96716,0.1428 -10.92742,2.63486 -1.56023,1.98351 -2.07258,4.08078 -2.07258,8.48395 l 0,5.84909 -4.25,-2.23395 c -3.53946,-1.86046 -5.85074,-2.23395 -13.8246,-2.23395 -8.77133,0 -9.9231,0.23071 -13.72856,2.75 -2.28468,1.5125 -4.38861,2.75 -4.6754,2.75 -0.28679,0 -0.52144,-3.07156 -0.52144,-6.82569 0,-5.84184 -0.3336,-7.13908 -2.31445,-9 -2.00205,-1.88082 -3.46331,-2.17431 -10.82569,-2.17431 -7.53634,0 -8.75225,0.25772 -10.6154,2.25 -1.22451,1.30939 -2.238,3.9222 -2.42431,6.25 l -0.32015,4 -2.41177,-4 c -4.99537,-8.285 -5.39406,-8.5 -15.76254,-8.5 -11.70275,0 -13.32569,1.157 -13.32569,9.5 0,3.025 -0.39504,5.5 -0.87788,5.5 -0.48283,0 -2.49612,-0.67615 -4.47397,-1.50255 -2.74956,-1.14884 -6.99674,-1.44309 -18.04204,-1.25 -13.47349,0.23555 -14.60905,0.40581 -16.86896,2.52931 l -2.42303,2.27677 -5.40706,-2.517 c -4.2083,-1.95897 -7.02152,-2.51916 -12.68918,-2.52676 -8.05113,-0.0108 -12.44299,1.41643 -18.06815,5.87164 l -3.67387,2.90976 -2.98793,-2.48643 z"
       id="path3058"
       inkscape:connector-curvature="0" />
    <path
       style="fill:#7bc9df"
       d="m 98.966146,207.93229 c -0.366667,-0.36666 -0.666667,-12.06666 -0.666667,-26 l 0,-25.33333 4.500001,0 c 3.33333,0 4.5,0.38889 4.5,1.5 0,1.93202 0.20011,1.9045 4.46995,-0.61477 5.24307,-3.09349 14.87305,-2.38646 19.91924,1.46245 5.76486,4.39708 7.88328,9.58551 7.44637,18.23763 -0.3203,6.34283 -0.76035,7.75456 -3.45731,11.0913 -1.69966,2.10286 -4.61394,4.71589 -6.47618,5.80672 -4.30187,2.51989 -13.08267,2.61428 -17.65207,0.18976 l -3.25,-1.72445 0,8.02568 0,8.02568 -4.33333,0 c -2.38334,0 -4.633338,-0.3 -5.000004,-0.66667 z m 27.583334,-24.42111 c 4.71988,-5.05245 3.18775,-15.02484 -2.72206,-17.71753 -7.94269,-3.61894 -15.52794,1.50391 -15.52794,10.4871 0,4.6726 2.1764,8.04837 6.3783,9.89327 4.22462,1.85487 8.55973,0.8825 11.8717,-2.66284 z m -68.444197,11.74404 c -4.956352,-1.39239 -6.281983,-2.20121 -11.643433,-7.1041 -12.66043,-11.57759 -9.866181,-33.195 5.451052,-42.1715 5.476244,-3.20929 15.178369,-4.25884 21.92014,-2.37126 5.677725,1.58966 13.555506,8.47742 16.387915,14.3284 2.973287,6.14199 2.85181,16.45967 -0.272788,23.16948 -2.532874,5.43913 -8.109101,10.95149 -13.252183,13.10041 -4.927516,2.05885 -13.311281,2.53171 -18.590703,1.04857 z M 72.89841,184.69353 c 6.376397,-2.89582 8.901069,-7.2273 8.901069,-15.27124 0,-7.45495 -1.59731,-10.56292 -7.489831,-14.57333 -3.522098,-2.39712 -10.784429,-3.04672 -15.217695,-1.3612 -3.95968,1.50547 -8.536037,7.03572 -9.723028,11.74968 -2.059793,8.18018 1.690177,15.98538 9.351955,19.46519 5.16377,2.34527 8.998774,2.3428 14.17753,-0.009 z m 85.16511,10.96545 c -5.21257,-1.67571 -9.79381,-5.25467 -12.38417,-9.67479 -2.27699,-3.8854 -2.55356,-5.30554 -2.21165,-11.3566 0.33367,-5.90512 0.83883,-7.4722 3.45635,-10.72226 4.61752,-5.73337 9.75506,-8.27035 16.78757,-8.28992 11.50677,-0.032 19.58786,7.93915 19.58786,19.32141 l 0,5.66214 -14.58333,0 c -15.52963,0 -16.47153,0.37668 -11.05468,4.42094 3.30548,2.4679 9.87839,2.57648 12.49725,0.20644 2.08295,-1.88504 12.14076,-2.32556 12.14076,-0.53175 0,2.27084 -4.31414,7.02398 -8.15261,8.98222 -4.57988,2.33649 -12.09871,3.26313 -16.08335,1.98217 z m 15.26341,-26.00874 c -3.62845,-6.77981 -15.42645,-6.77981 -19.0549,0 -1.00319,1.8745 -0.64031,1.94872 9.52745,1.94872 10.16776,0 10.53064,-0.0742 9.52745,-1.94872 z m 122.09945,25.50281 c -8.23729,-2.6668 -14.14405,-10.73414 -14.10494,-19.26425 0.054,-11.76829 8.71846,-20.28984 20.6302,-20.28984 9.77896,0 17.06974,6.17318 19.32964,16.36663 1.92156,8.66732 1.97877,8.63337 -14.54919,8.63337 -7.93793,0 -14.43261,0.37156 -14.43261,0.82569 0,1.64854 4.57802,4.97489 7.77904,5.65218 2.40042,0.50789 4.3513,0.1349 7.28079,-1.39204 4.18064,-2.17907 12.94017,-2.89028 12.94017,-1.05065 0,2.20833 -3.4697,6.15577 -7.47283,8.50177 -5.28599,3.09779 -11.74832,3.84695 -17.40027,2.01714 z m 15.74139,-25.94382 c -2.92627,-6.42245 -15.37805,-6.13184 -18.89574,0.44101 -1.00303,1.87419 -0.64081,1.94872 9.47083,1.94872 l 10.51374,0 -1.08883,-2.38973 z m 33.31638,26.40031 c -1.82344,-0.43159 -4.41094,-1.81397 -5.75,-3.07196 l -2.43467,-2.28725 0,2.67432 c 0,2.50289 -0.28845,2.67431 -4.5,2.67431 l -4.5,0 0,-26 0,-26 5,0 5,0 0,7.52568 0,7.52568 2.78456,-1.43995 c 13.58146,-7.02325 28.17152,2.50022 28.17152,18.38859 0,9.75149 -5.43783,17.65105 -13.73713,19.95599 -4.18528,1.16237 -5.32769,1.16858 -10.03428,0.0546 z m 11.06533,-11.99163 c 5.76437,-6.39427 2.39753,-18.05644 -5.64863,-19.56591 -4.82981,-0.90608 -9.91271,1.57595 -11.92905,5.82506 -2.08329,4.39021 -2.10687,7.00389 -0.10134,11.23025 3.29356,6.94066 12.50599,8.24892 17.67902,2.5106 z m 26.25,11.14266 c -6.82252,-3.22124 -7.94708,-6.37739 -8.34172,-23.41161 l -0.34171,-14.75 5.09171,0 5.09172,0 0,13.04545 c 0,12.5174 0.0994,13.14482 2.45455,15.5 2.72225,2.72226 4.28083,2.98787 7.88813,1.34428 3.79864,-1.73078 4.65732,-5.03782 4.65732,-17.93678 l 0,-11.95295 5,0 5,0 0,19.5 0,19.5 -4.5,0 c -3.33333,0 -4.5,-0.38889 -4.5,-1.5 0,-1.86715 -0.49766,-1.8748 -3.28518,-0.0505 -3.8365,2.51074 -9.77528,2.80827 -14.21482,0.71215 z m 65,1.39154 c -0.55,-0.20802 -2.20282,-0.64244 -3.67293,-0.96539 -3.88322,-0.85305 -8.83604,-5.39823 -10.94741,-10.04639 -4.78306,-10.52988 0.40507,-24.68802 10.43544,-28.47775 5.07562,-1.91771 12.04766,-1.30666 16.04535,1.40624 3.45177,2.34244 3.63955,2.36823 3.63955,0.5 0,-1.66798 0.68962,-1.96986 4.5,-1.96986 l 4.5,0 0,19.5 0,19.5 -4.5,0 c -3.89211,0 -4.5,-0.28119 -4.5,-2.08156 l 0,-2.08156 -3.29618,2.03715 c -3.15566,1.95031 -10.09998,3.4748 -12.20382,2.67912 z m 11.10848,-11.03227 c 1.21717,-0.79752 2.74777,-3.07031 3.40134,-5.05064 2.67837,-8.11554 -2.25673,-15.49105 -10.33655,-15.448 -6.71941,0.0358 -10.67327,4.42013 -10.67327,11.83529 0,9.00449 9.75955,13.80617 17.60848,8.66335 z m -268.60848,-9.02088 0,-19.5 4.41667,0 c 2.52137,0 4.58659,0.50977 4.81264,1.18793 0.28083,0.84249 1.09676,0.69709 2.80584,-0.5 1.58798,-1.11226 4.38528,-1.68793 8.20204,-1.68793 5.14232,0 6.18915,0.36464 9.33035,3.25 4.52934,4.16044 5.37853,7.92864 5.4086,24 l 0.0239,12.75 -5,0 -5,0 0,-11.9349 c 0,-11.67014 -0.9223,-16.75957 -3.31256,-18.27944 -2.43294,-1.54699 -6.80779,-0.75622 -9.23289,1.66889 -2.35519,2.35518 -2.45455,2.9826 -2.45455,15.5 l 0,13.04545 -5,0 -5,0 0,-19.5 z m 43,-6.5499 0,-26.04991 5.72336,0.29991 5.72336,0.2999 10.02664,17.74377 10.02664,17.74376 0.27256,-17.99376 0.27256,-17.99377 4.97744,0 4.97744,0 0,26.0499 0,26.04991 -5.62404,-0.29991 -5.62403,-0.2999 -10.12597,-17.61738 -10.12596,-17.61738 -0.27256,17.86738 -0.27256,17.86738 -4.97744,0 -4.97744,0 0,-26.0499 z m 183,0.10469 0,-26.05479 5.01688,0 5.01688,0 -0.26688,25.75 -0.26688,25.75 -4.75,0.30479 -4.75,0.30479 0,-26.05479 z m -275.5763,-15.1422 c -1.05804,-1.17082 -4.17095,-3.26832 -6.91759,-4.66111 -5.38641,-2.73139 -7.99003,-2.94532 -27.7806,-2.28266 l -10.774486,0.36076 -3.225512,-3.3029 c -1.774032,-1.8166 -4.226654,-3.96007 -5.450272,-4.76327 -2.042388,-1.34064 -2.111026,-1.68029 -0.837321,-4.14336 2.061437,-3.98638 10.619631,-11.61053 16.179291,-14.41348 2.68554,-1.35393 9.77765,-3.84915 15.76025,-5.54493 5.98261,-1.69578 11.12164,-3.32741 11.42008,-3.62584 0.29843,-0.29844 -0.77143,-5.15358 -2.37747,-10.78921 -5.51759,-19.361349 -3.39231,-31.35808 7.64559,-43.157632 11.8994,-12.720497 29.47429,-18.127298 47.13512,-14.500814 2.91457,0.598479 10.43033,3.529867 16.70169,6.514194 6.27136,2.984328 11.49682,5.307163 11.61214,5.161856 0.11531,-0.145308 2.60884,-4.989196 5.54117,-10.764195 6.63784,-13.072728 13.53264,-20.305421 24.1688,-25.353218 8.61578,-4.08895 15.43667,-5.652159 24.57464,-5.632002 29.55866,0.0652 52.52945,22.358376 49.09742,47.64911 -0.5432,4.002832 -2.82038,9.928872 -7.38709,19.223852 -4.22273,8.594847 -6.21377,13.677025 -5.52501,14.1027 0.59224,0.366026 6.5755,1.476353 13.29613,2.467394 6.72063,0.991041 14.46933,2.469049 17.21933,3.284465 22.18582,6.57841 35.90454,24.73741 33.05321,43.75142 -0.67262,4.48536 -0.81697,4.65522 -3.37793,3.9749 -1.4714,-0.39088 -5.15028,-0.99373 -8.17528,-1.33966 -4.92236,-0.5629 -5.53063,-0.89152 -5.7916,-3.12896 -0.78256,-6.70923 -4.16911,-9 -13.30511,-9 -6.31279,0 -11.23737,1.82227 -12.28211,4.5448 -0.34165,0.89033 -0.62118,4.05697 -0.62118,7.03699 0,2.98001 -0.1678,5.41821 -0.37288,5.41821 -0.20509,0 -2.56759,-0.98671 -5.25,-2.19269 -3.5187,-1.58196 -6.86657,-2.20092 -12.01982,-2.22222 -6.08631,-0.0252 -8.04596,0.43631 -13.25,3.12024 l -6.1073,3.14978 0,-6.34577 c 0,-3.49017 -0.27953,-7.07421 -0.62118,-7.96454 -1.05119,-2.73935 -5.96874,-4.5448 -12.37882,-4.5448 -8.39241,0 -11.70759,1.87799 -13.20618,7.48107 l -1.18133,4.41687 -2.74198,-4.80103 c -3.50245,-6.13255 -6.56202,-7.43208 -16.33585,-6.93853 -9.57444,0.48349 -11.65252,2.21766 -12.32129,10.2822 -0.25357,3.05768 -0.56117,5.55942 -0.68356,5.55942 -0.12239,0 -1.6796,-0.72688 -3.46046,-1.61529 -3.17885,-1.58582 -5.97561,-1.77526 -22.8218,-1.54589 -7.943,0.10814 -13.58842,1.72028 -14.4072,4.11418 -0.18719,0.5473 -2.78909,-0.21823 -5.78199,-1.70118 -9.97116,-4.94059 -24.50264,-2.98594 -32.13466,4.32247 l -2.5763,2.46706 -1.9237,-2.12876 z"
       id="path3056"
       inkscape:connector-curvature="0" />
    <path
       style="fill:#9fa09f"
       d="m 98.966146,207.93229 c -0.366667,-0.36666 -0.666667,-12.06666 -0.666667,-26 l 0,-25.33333 4.500001,0 c 3.33333,0 4.5,0.38889 4.5,1.5 0,1.93202 0.20011,1.9045 4.46995,-0.61477 5.24307,-3.09349 14.87305,-2.38646 19.91924,1.46245 5.76486,4.39708 7.88328,9.58551 7.44637,18.23763 -0.3203,6.34283 -0.76035,7.75456 -3.45731,11.0913 -1.69966,2.10286 -4.61394,4.71589 -6.47618,5.80672 -4.30187,2.51989 -13.08267,2.61428 -17.65207,0.18976 l -3.25,-1.72445 0,8.02568 0,8.02568 -4.33333,0 c -2.38334,0 -4.633338,-0.3 -5.000004,-0.66667 z m 27.583334,-24.42111 c 4.71988,-5.05245 3.18775,-15.02484 -2.72206,-17.71753 -7.94269,-3.61894 -15.52794,1.50391 -15.52794,10.4871 0,4.6726 2.1764,8.04837 6.3783,9.89327 4.22462,1.85487 8.55973,0.8825 11.8717,-2.66284 z m -68.444197,11.74404 c -4.956352,-1.39239 -6.281983,-2.20121 -11.643433,-7.1041 -12.66043,-11.57759 -9.866181,-33.195 5.451052,-42.1715 5.476244,-3.20929 15.178369,-4.25884 21.92014,-2.37126 5.677725,1.58966 13.555506,8.47742 16.387915,14.3284 2.973287,6.14199 2.85181,16.45967 -0.272788,23.16948 -2.532874,5.43913 -8.109101,10.95149 -13.252183,13.10041 -4.927516,2.05885 -13.311281,2.53171 -18.590703,1.04857 z M 72.89841,184.69353 c 6.376397,-2.89582 8.901069,-7.2273 8.901069,-15.27124 0,-7.45495 -1.59731,-10.56292 -7.489831,-14.57333 -3.522098,-2.39712 -10.784429,-3.04672 -15.217695,-1.3612 -3.95968,1.50547 -8.536037,7.03572 -9.723028,11.74968 -2.059793,8.18018 1.690177,15.98538 9.351955,19.46519 5.16377,2.34527 8.998774,2.3428 14.17753,-0.009 z m 85.16511,10.96545 c -5.21257,-1.67571 -9.79381,-5.25467 -12.38417,-9.67479 -2.27699,-3.8854 -2.55356,-5.30554 -2.21165,-11.3566 0.33367,-5.90512 0.83883,-7.4722 3.45635,-10.72226 4.61752,-5.73337 9.75506,-8.27035 16.78757,-8.28992 11.50677,-0.032 19.58786,7.93915 19.58786,19.32141 l 0,5.66214 -14.58333,0 c -15.52963,0 -16.47153,0.37668 -11.05468,4.42094 3.30548,2.4679 9.87839,2.57648 12.49725,0.20644 2.08295,-1.88504 12.14076,-2.32556 12.14076,-0.53175 0,2.27084 -4.31414,7.02398 -8.15261,8.98222 -4.57988,2.33649 -12.09871,3.26313 -16.08335,1.98217 z m 15.26341,-26.00874 c -3.62845,-6.77981 -15.42645,-6.77981 -19.0549,0 -1.00319,1.8745 -0.64031,1.94872 9.52745,1.94872 10.16776,0 10.53064,-0.0742 9.52745,-1.94872 z m 15.97255,6.44872 0,-19.5 4.41667,0 c 2.52137,0 4.58659,0.50977 4.81264,1.18793 0.28083,0.84249 1.09676,0.69709 2.80584,-0.5 1.58798,-1.11226 4.38528,-1.68793 8.20204,-1.68793 5.14232,0 6.18915,0.36464 9.33035,3.25 4.52934,4.16044 5.37853,7.92864 5.4086,24 l 0.0239,12.75 -5,0 -5,0 0,-11.9349 c 0,-11.67014 -0.9223,-16.75957 -3.31256,-18.27944 -2.43294,-1.54699 -6.80779,-0.75622 -9.23289,1.66889 -2.35519,2.35518 -2.45455,2.9826 -2.45455,15.5 l 0,13.04545 -5,0 -5,0 0,-19.5 z m 102.97526,17.25 c -2.60087,-1.31549 -5.70008,-4.05097 -7.46188,-6.58614 -6.09724,-8.77372 -2.99761,-22.71327 6.20006,-27.88265 13.97525,-7.85453 30.18449,0.96589 30.2646,16.46879 l 0.022,4.25 -15,0 c -9.76812,0 -15,0.36465 -15,1.04545 0,1.73708 4.65529,5.82993 7.42045,6.52394 3.43124,0.86119 9.07305,-0.25417 10.60151,-2.09585 1.37556,-1.65745 10.97804,-2.10209 10.97804,-0.50834 0,1.79945 -5.99418,7.80415 -9.40722,9.42375 -4.96816,2.35754 -13.25542,2.07313 -18.61752,-0.63895 z m 20.02474,-22.52749 c 0,-2.10526 -3.48075,-5.28626 -6.90795,-6.31308 -4.81809,-1.44353 -10.22226,0.11416 -12.51014,3.60591 -0.87005,1.32786 -1.58191,2.65513 -1.58191,2.94948 0,0.29435 4.725,0.53518 10.5,0.53518 5.775,0 10.5,-0.34987 10.5,-0.77749 z m 27.63955,22.30763 c -3.45177,-2.34244 -3.63955,-2.36823 -3.63955,-0.5 0,1.6315 -0.68707,1.96986 -4,1.96986 l -4,0 0,-25.5 0,-25.5 4,0 4,0 0,8 c 0,4.4 0.21412,8 0.47583,8 0.26171,0 1.94921,-0.89832 3.75,-1.99626 4.60249,-2.80614 12.76434,-2.69927 17.98607,0.23551 12.40855,6.974 12.5817,28.50005 0.28526,35.46408 -5.70943,3.2335 -13.94908,3.15783 -18.85761,-0.17319 z m 13.48889,-7.09656 c 3.07327,-1.58925 5.87156,-6.59354 5.87156,-10.50033 0,-3.58053 -3.11293,-8.94029 -6.08519,-10.4773 -6.0293,-3.11788 -12.43047,-1.22702 -15.42052,4.55509 -5.56492,10.76138 5.03994,21.90102 15.63415,16.42254 z m 27.90158,8.28711 c -1.3585,-0.68741 -3.496,-2.77232 -4.75,-4.63314 -2.11915,-3.1446 -2.28002,-4.43124 -2.28002,-18.23543 l 0,-14.85212 4,0 4,0 0.0564,11.25 c 0.031,6.1875 0.59355,12.81534 1.25,14.72854 1.34301,3.91412 4.82821,5.70645 9.04048,4.64924 4.80327,-1.20555 6.03012,-4.66323 6.48317,-18.27179 l 0.41139,-12.35599 3.87928,0 3.87928,0 0,19 0,19 -4,0 c -2.8713,0 -4,-0.41912 -4,-1.4853 0,-1.21194 -0.59815,-1.1206 -3.25,0.49626 -3.72533,2.27138 -10.94575,2.61951 -14.71998,0.70973 z m 59.1931,-0.83928 c -6.36595,-3.15109 -9.63488,-9.27416 -9.63488,-18.04721 0,-5.91103 0.38346,-7.33307 2.96972,-11.01286 4.26233,-6.06456 8.61175,-8.31004 16.10826,-8.31624 4.83152,-0.004 6.82495,0.48192 9.20951,2.2449 3.72723,2.75566 4.12427,2.77973 4.12427,0.25 0,-1.66667 0.66667,-2 4,-2 l 4,0 0,19 0,19 -4,0 c -3.33333,0 -4,-0.33333 -4,-2 0,-2.53152 -0.15238,-2.51493 -4.59514,0.5 -4.76795,3.23562 -12.10462,3.38952 -18.18174,0.38141 z m 17.85942,-8.66385 c 6.22465,-5.56173 4.782,-16.15583 -2.68235,-19.6979 -9.16838,-4.35068 -18.70005,4.98168 -15.37579,15.05427 2.41272,7.31061 12.24387,9.83868 18.05814,4.64363 z m -226.08254,-15.71756 0,-25.5 5.40789,0 5.40788,0 10.58404,18.75 10.58403,18.75 0.008,-18.75 0.008,-18.75 4.5,0 4.5,0 0,25.55226 0,25.55226 -5.20378,-0.30226 -5.20377,-0.30226 -9.74285,-16.89662 c -5.35857,-9.29315 -10.21687,-17.37065 -10.79622,-17.95 -0.73784,-0.73784 -1.05338,4.39847 -1.05338,17.14662 l 0,18.2 -4.5,0 -4.5,0 0,-25.5 z m 183,0 0,-25.5 4.5,0 4.5,0 0,25.5 0,25.5 -4.5,0 -4.5,0 0,-25.5 z M 138.70447,153.49255 c -2.5959,-2.87038 -8.42298,-5.72462 -13.06322,-6.39868 -2.11298,-0.30693 -10.02394,-0.20542 -17.57992,0.22559 -10.271343,0.5859 -13.852713,0.4851 -14.192142,-0.39944 -0.249696,-0.6507 -2.713642,-2.96923 -5.475435,-5.15231 l -5.021441,-3.96922 2.814729,-3.88562 c 6.136496,-8.47118 14.643689,-13.37489 31.489899,-18.15137 5.98261,-1.69627 11.01103,-3.2177 11.17427,-3.38094 0.16324,-0.16324 -1.04477,-5.01838 -2.68446,-10.7892 -5.58344,-19.650616 -3.02655,-32.963552 8.55543,-44.545535 10.43333,-10.433335 27.16901,-15.828477 41.83307,-13.485883 8.11259,1.295993 12.17755,2.726193 22.50067,7.916554 4.50954,2.267354 8.64066,4.122463 9.18027,4.122463 0.53961,0 3.48609,-4.897205 6.54773,-10.882679 6.55333,-12.811652 12.42973,-19.249131 22.30558,-24.435297 17.75259,-9.322528 40.00565,-8.225942 56.60061,2.789165 6.85436,4.549665 11.62351,10.179332 15.33223,18.098677 2.3912,5.106031 2.77714,7.180849 2.77714,14.930134 l 0,8.999999 -6.75,14.100064 c -3.7125,7.755036 -6.75,14.559099 -6.75,15.12014 0,0.561042 5.2875,1.788485 11.75,2.727651 6.4625,0.939166 14.35703,2.343295 17.5434,3.120287 13.92822,3.39638 26.24842,12.69315 31.82047,24.01161 2.72618,5.53766 3.14929,7.45767 3.14929,14.29127 0,4.34179 -0.27199,8.33425 -0.60442,8.87213 -0.38397,0.62128 -2.51741,0.48174 -5.84951,-0.38259 -2.8848,-0.74831 -6.22194,-1.36056 -7.41587,-1.36056 -1.68397,0 -2.3162,-0.77517 -2.81925,-3.45667 -1.06146,-5.65807 -4.47373,-7.54333 -13.6532,-7.54333 -6.75456,0 -8.17827,0.3173 -10.54042,2.34914 -2.27437,1.95633 -2.80328,3.34782 -3.16304,8.32147 l -0.432,5.97232 -4.14273,-2.07147 c -6.30565,-3.15298 -18.42104,-2.92572 -25.29146,0.47441 l -5.14426,2.54587 -0.40947,-6.4306 c -0.35071,-5.50775 -0.80409,-6.77004 -3.15927,-8.79587 -2.39709,-2.0619 -3.77859,-2.36527 -10.77095,-2.36527 -7.53216,0 -8.19936,0.1782 -10.94423,2.92308 -1.83374,1.83373 -2.93016,3.97658 -2.94208,5.75 -0.0181,2.68698 -0.16508,2.59432 -2.96992,-1.8718 -1.623,-2.58429 -3.83487,-5.17179 -4.91526,-5.75 -1.08038,-0.5782 -5.62854,-1.05128 -10.107,-1.05128 -7.66646,0 -8.31362,0.17095 -11.06574,2.92308 -2.4545,2.45449 -2.92308,3.72791 -2.92308,7.94377 l 0,5.02069 -4.51613,-1.9977 c -4.0783,-1.80403 -5.84761,-1.9348 -18.25,-1.34893 -11.36788,0.537 -14.21597,0.9883 -16.53232,2.61968 l -2.79844,1.97092 -4.70156,-2.31576 c -3.81419,-1.87868 -6.30583,-2.31161 -13.20155,-2.29382 -9.03258,0.0233 -14.31871,1.85332 -18.40499,6.37166 -1.04774,1.15853 -2.4405,2.10641 -3.09501,2.10641 -0.65451,0 -2.04727,-0.94788 -3.09501,-2.10641 z"
       id="path3054"
       inkscape:connector-curvature="0" />
    <path
       style="fill:#0197c2"
       d="m 99.299479,182.09896 0,-25.5 4.000001,0 c 3.353,0 4,0.32834 4,2.02994 0,2.02245 0.0105,2.02217 2.84649,-0.0746 6.34759,-4.69297 16.23201,-3.76774 22.61618,2.11698 9.94429,9.16633 8.08497,27.03648 -3.42395,32.9079 -5.25958,2.68323 -13.41517,2.69732 -17.78872,0.0307 l -3.25,-1.98156 0,7.9853 0,7.9853 -4.5,0 -4.500001,0 0,-25.5 z m 24.914811,4.04405 c 6.51549,-3.36929 7.6107,-13.17239 2.08857,-18.69451 -5.59374,-5.59375 -15.44853,-3.09081 -17.97531,4.56541 -3.25981,9.87733 6.80275,18.82662 15.88674,14.1291 z m -69.480187,7.56554 c -10.057046,-4.5679 -15.559624,-13.28692 -15.559624,-24.65475 0,-8.14923 2.416884,-13.67198 8.375187,-19.1379 7.269518,-6.66877 16.607385,-8.74285 26.318312,-5.84566 10.171022,3.03444 17.300656,12.02954 18.175754,22.93142 1.333799,16.61633 -9.674308,28.62676 -26.190597,28.57534 -4.683432,-0.0146 -8.419735,-0.64243 -11.119032,-1.86845 z m 19.575545,-9.35959 c 6.841092,-4.65601 9.49721,-11.23426 7.782436,-19.2743 -1.808116,-8.47769 -10.827758,-14.49774 -19.331341,-12.90246 -15.745917,2.95396 -19.36737,24.28297 -5.489941,32.33372 4.952947,2.87336 12.691112,2.80208 17.038846,-0.15696 z m 80.489832,9.58837 c -13.90252,-7.32922 -15.45702,-25.77261 -2.9168,-34.60664 13.08018,-9.21441 31.31252,0.0881 31.39484,16.01827 l 0.022,4.25 -15,0 c -8.25,0 -15,0.25458 -15,0.56574 0,1.71666 2.42705,4.60373 4.97998,5.92391 3.97332,2.05468 7.88324,1.89112 11.79419,-0.49339 3.40069,-2.0734 12.22583,-2.81766 12.22583,-1.03106 0,1.85875 -6.49899,8.34534 -9.70226,9.68376 -4.35673,1.82036 -14.0774,1.65072 -17.79774,-0.31059 z m 19.5,-23.20201 c 0,-0.475 -1.18636,-2.05 -2.63636,-3.5 -2.17602,-2.17602 -3.54912,-2.63636 -7.86364,-2.63636 -4.31452,0 -5.68762,0.46034 -7.86364,2.63636 -1.45,1.45 -2.63636,3.025 -2.63636,3.5 0,0.475 4.725,0.86364 10.5,0.86364 5.775,0 10.5,-0.38864 10.5,-0.86364 z m 15,5.36364 0,-19.5 4.5,0 c 3.17847,0 4.5,0.40885 4.5,1.3922 0,1.09979 0.77954,0.99477 3.71144,-0.5 7.32002,-3.73195 16.29297,-1.38605 19.53701,5.1078 1.42711,2.85677 1.74873,6.21076 1.75,18.25 l 0.002,14.75 -4.5,0 -4.5,0 0,-13.27749 c 0,-15.64095 -0.80638,-17.72251 -6.86557,-17.72251 -7.38063,0 -9.013,3.81568 -9.09088,21.25 l -0.0436,9.75 -4.5,0 -4.5,0 0,-19.5 z m 102.97526,17.25 c -2.60087,-1.31549 -5.70008,-4.05097 -7.46188,-6.58614 -6.09724,-8.77372 -2.99761,-22.71327 6.20006,-27.88265 13.97525,-7.85453 30.18449,0.96589 30.2646,16.46879 l 0.022,4.25 -15,0 c -9.76812,0 -15,0.36465 -15,1.04545 0,1.73708 4.65529,5.82993 7.42045,6.52394 3.43124,0.86119 9.07305,-0.25417 10.60151,-2.09585 1.37556,-1.65745 10.97804,-2.10209 10.97804,-0.50834 0,1.79945 -5.99418,7.80415 -9.40722,9.42375 -4.96816,2.35754 -13.25542,2.07313 -18.61752,-0.63895 z m 20.02474,-22.52749 c 0,-2.10526 -3.48075,-5.28626 -6.90795,-6.31308 -4.81809,-1.44353 -10.22226,0.11416 -12.51014,3.60591 -0.87005,1.32786 -1.58191,2.65513 -1.58191,2.94948 0,0.29435 4.725,0.53518 10.5,0.53518 5.775,0 10.5,-0.34987 10.5,-0.77749 z m 27.63955,22.30763 c -3.45177,-2.34244 -3.63955,-2.36823 -3.63955,-0.5 0,1.6315 -0.68707,1.96986 -4,1.96986 l -4,0 0,-25.5 0,-25.5 4,0 4,0 0,8 c 0,4.4 0.21412,8 0.47583,8 0.26171,0 1.94921,-0.89832 3.75,-1.99626 4.60249,-2.80614 12.76434,-2.69927 17.98607,0.23551 12.40855,6.974 12.5817,28.50005 0.28526,35.46408 -5.70943,3.2335 -13.94908,3.15783 -18.85761,-0.17319 z m 13.48889,-7.09656 c 3.07327,-1.58925 5.87156,-6.59354 5.87156,-10.50033 0,-3.58053 -3.11293,-8.94029 -6.08519,-10.4773 -6.0293,-3.11788 -12.43047,-1.22702 -15.42052,4.55509 -5.56492,10.76138 5.03994,21.90102 15.63415,16.42254 z m 27.90158,8.28711 c -1.3585,-0.68741 -3.496,-2.77232 -4.75,-4.63314 -2.11915,-3.1446 -2.28002,-4.43124 -2.28002,-18.23543 l 0,-14.85212 4,0 4,0 0.0564,11.25 c 0.031,6.1875 0.59355,12.81534 1.25,14.72854 1.34301,3.91412 4.82821,5.70645 9.04048,4.64924 4.80327,-1.20555 6.03012,-4.66323 6.48317,-18.27179 l 0.41139,-12.35599 3.87928,0 3.87928,0 0,19 0,19 -4,0 c -2.8713,0 -4,-0.41912 -4,-1.4853 0,-1.21194 -0.59815,-1.1206 -3.25,0.49626 -3.72533,2.27138 -10.94575,2.61951 -14.71998,0.70973 z m 59.1931,-0.83928 c -6.36595,-3.15109 -9.63488,-9.27416 -9.63488,-18.04721 0,-5.91103 0.38346,-7.33307 2.96972,-11.01286 4.26233,-6.06456 8.61175,-8.31004 16.10826,-8.31624 4.83152,-0.004 6.82495,0.48192 9.20951,2.2449 3.72723,2.75566 4.12427,2.77973 4.12427,0.25 0,-1.66667 0.66667,-2 4,-2 l 4,0 0,19 0,19 -4,0 c -3.33333,0 -4,-0.33333 -4,-2 0,-2.53152 -0.15238,-2.51493 -4.59514,0.5 -4.76795,3.23562 -12.10462,3.38952 -18.18174,0.38141 z m 17.85942,-8.66385 c 6.22465,-5.56173 4.782,-16.15583 -2.68235,-19.6979 -9.16838,-4.35068 -18.70005,4.98168 -15.37579,15.05427 2.41272,7.31061 12.24387,9.83868 18.05814,4.64363 z m -226.08254,-15.71756 0,-25.5 5.40789,0 5.40788,0 10.58404,18.75 10.58403,18.75 0.008,-18.75 0.008,-18.75 4.5,0 4.5,0 0,25.55226 0,25.55226 -5.20378,-0.30226 -5.20377,-0.30226 -9.74285,-16.89662 c -5.35857,-9.29315 -10.21687,-17.37065 -10.79622,-17.95 -0.73784,-0.73784 -1.05338,4.39847 -1.05338,17.14662 l 0,18.2 -4.5,0 -4.5,0 0,-25.5 z m 183,0 0,-25.5 4.5,0 4.5,0 0,25.5 0,25.5 -4.5,0 -4.5,0 0,-25.5 z M 138.70447,153.49255 c -2.5959,-2.87038 -8.42298,-5.72462 -13.06322,-6.39868 -2.11298,-0.30693 -10.02394,-0.20542 -17.57992,0.22559 -10.271343,0.5859 -13.852713,0.4851 -14.192142,-0.39944 -0.249696,-0.6507 -2.713642,-2.96923 -5.475435,-5.15231 l -5.021441,-3.96922 2.814729,-3.88562 c 6.136496,-8.47118 14.643689,-13.37489 31.489899,-18.15137 5.98261,-1.69627 11.01103,-3.2177 11.17427,-3.38094 0.16324,-0.16324 -1.04477,-5.01838 -2.68446,-10.7892 -5.58344,-19.650616 -3.02655,-32.963552 8.55543,-44.545535 10.43333,-10.433335 27.16901,-15.828477 41.83307,-13.485883 8.11259,1.295993 12.17755,2.726193 22.50067,7.916554 4.50954,2.267354 8.64066,4.122463 9.18027,4.122463 0.53961,0 3.48609,-4.897205 6.54773,-10.882679 6.55333,-12.811652 12.42973,-19.249131 22.30558,-24.435297 17.75259,-9.322528 40.00565,-8.225942 56.60061,2.789165 6.85436,4.549665 11.62351,10.179332 15.33223,18.098677 2.3912,5.106031 2.77714,7.180849 2.77714,14.930134 l 0,8.999999 -6.75,14.100064 c -3.7125,7.755036 -6.75,14.559099 -6.75,15.12014 0,0.561042 5.2875,1.788485 11.75,2.727651 6.4625,0.939166 14.35703,2.343295 17.5434,3.120287 13.92822,3.39638 26.24842,12.69315 31.82047,24.01161 2.72618,5.53766 3.14929,7.45767 3.14929,14.29127 0,4.34179 -0.27199,8.33425 -0.60442,8.87213 -0.38397,0.62128 -2.51741,0.48174 -5.84951,-0.38259 -2.8848,-0.74831 -6.22194,-1.36056 -7.41587,-1.36056 -1.68397,0 -2.3162,-0.77517 -2.81925,-3.45667 -1.06146,-5.65807 -4.47373,-7.54333 -13.6532,-7.54333 -6.75456,0 -8.17827,0.3173 -10.54042,2.34914 -2.27437,1.95633 -2.80328,3.34782 -3.16304,8.32147 l -0.432,5.97232 -4.14273,-2.07147 c -6.30565,-3.15298 -18.42104,-2.92572 -25.29146,0.47441 l -5.14426,2.54587 -0.40947,-6.4306 c -0.35071,-5.50775 -0.80409,-6.77004 -3.15927,-8.79587 -2.39709,-2.0619 -3.77859,-2.36527 -10.77095,-2.36527 -7.53216,0 -8.19936,0.1782 -10.94423,2.92308 -1.83374,1.83373 -2.93016,3.97658 -2.94208,5.75 -0.0181,2.68698 -0.16508,2.59432 -2.96992,-1.8718 -1.623,-2.58429 -3.83487,-5.17179 -4.91526,-5.75 -1.08038,-0.5782 -5.62854,-1.05128 -10.107,-1.05128 -7.66646,0 -8.31362,0.17095 -11.06574,2.92308 -2.4545,2.45449 -2.92308,3.72791 -2.92308,7.94377 l 0,5.02069 -4.51613,-1.9977 c -4.0783,-1.80403 -5.84761,-1.9348 -18.25,-1.34893 -11.36788,0.537 -14.21597,0.9883 -16.53232,2.61968 l -2.79844,1.97092 -4.70156,-2.31576 c -3.81419,-1.87868 -6.30583,-2.31161 -13.20155,-2.29382 -9.03258,0.0233 -14.31871,1.85332 -18.40499,6.37166 -1.04774,1.15853 -2.4405,2.10641 -3.09501,2.10641 -0.65451,0 -2.04727,-0.94788 -3.09501,-2.10641 z"
       id="path3052"
       inkscape:connector-curvature="0" />
    <path
       style="fill:#575857"
       d="m 99.299479,182.09896 0,-25.5 4.000001,0 c 3.353,0 4,0.32834 4,2.02994 0,2.02245 0.0105,2.02217 2.84649,-0.0746 6.34759,-4.69297 16.23201,-3.76774 22.61618,2.11698 9.94429,9.16633 8.08497,27.03648 -3.42395,32.9079 -5.25958,2.68323 -13.41517,2.69732 -17.78872,0.0307 l -3.25,-1.98156 0,7.9853 0,7.9853 -4.5,0 -4.500001,0 0,-25.5 z m 24.914811,4.04405 c 6.51549,-3.36929 7.6107,-13.17239 2.08857,-18.69451 -5.59374,-5.59375 -15.44853,-3.09081 -17.97531,4.56541 -3.25981,9.87733 6.80275,18.82662 15.88674,14.1291 z m -69.480187,7.56554 c -10.057046,-4.5679 -15.559624,-13.28692 -15.559624,-24.65475 0,-8.14923 2.416884,-13.67198 8.375187,-19.1379 7.269518,-6.66877 16.607385,-8.74285 26.318312,-5.84566 10.171022,3.03444 17.300656,12.02954 18.175754,22.93142 1.333799,16.61633 -9.674308,28.62676 -26.190597,28.57534 -4.683432,-0.0146 -8.419735,-0.64243 -11.119032,-1.86845 z m 19.575545,-9.35959 c 6.841092,-4.65601 9.49721,-11.23426 7.782436,-19.2743 -1.808116,-8.47769 -10.827758,-14.49774 -19.331341,-12.90246 -15.745917,2.95396 -19.36737,24.28297 -5.489941,32.33372 4.952947,2.87336 12.691112,2.80208 17.038846,-0.15696 z m 80.489832,9.58837 c -13.90252,-7.32922 -15.45702,-25.77261 -2.9168,-34.60664 13.08018,-9.21441 31.31252,0.0881 31.39484,16.01827 l 0.022,4.25 -15,0 c -8.25,0 -15,0.25458 -15,0.56574 0,1.71666 2.42705,4.60373 4.97998,5.92391 3.97332,2.05468 7.88324,1.89112 11.79419,-0.49339 3.40069,-2.0734 12.22583,-2.81766 12.22583,-1.03106 0,1.85875 -6.49899,8.34534 -9.70226,9.68376 -4.35673,1.82036 -14.0774,1.65072 -17.79774,-0.31059 z m 19.5,-23.20201 c 0,-0.475 -1.18636,-2.05 -2.63636,-3.5 -2.17602,-2.17602 -3.54912,-2.63636 -7.86364,-2.63636 -4.31452,0 -5.68762,0.46034 -7.86364,2.63636 -1.45,1.45 -2.63636,3.025 -2.63636,3.5 0,0.475 4.725,0.86364 10.5,0.86364 5.775,0 10.5,-0.38864 10.5,-0.86364 z m 15,5.36364 0,-19.5 4.5,0 c 3.17847,0 4.5,0.40885 4.5,1.3922 0,1.09979 0.77954,0.99477 3.71144,-0.5 7.32002,-3.73195 16.29297,-1.38605 19.53701,5.1078 1.42711,2.85677 1.74873,6.21076 1.75,18.25 l 0.002,14.75 -4.5,0 -4.5,0 0,-13.27749 c 0,-15.64095 -0.80638,-17.72251 -6.86557,-17.72251 -7.38063,0 -9.013,3.81568 -9.09088,21.25 l -0.0436,9.75 -4.5,0 -4.5,0 0,-19.5 z"
       id="path3050"
       inkscape:connector-curvature="0" />
    <path
       style="fill:#343634"
       d="m 99.299479,182.09896 0,-25.5 4.000001,0 c 3.31046,0 4,0.33895 4,1.96627 0,1.94 0.0434,1.94098 3.25,0.0733 12.87464,-7.49878 28.73885,1.86357 28.73885,16.9604 0,7.47573 -5.34129,15.99583 -11.69111,18.64896 -4.56624,1.9079 -11.2369,1.67629 -15.5863,-0.54116 l -3.71144,-1.89217 0,7.8922 0,7.8922 -4.5,0 -4.500001,0 0,-25.5 z m 27.025711,2.62813 c 5.22205,-5.22204 5.17853,-12.64215 -0.10383,-17.70297 -2.42285,-2.32124 -3.95515,-2.92516 -7.42188,-2.92516 -8.05245,0 -13.19254,7.84151 -10.49597,16.01221 2.45059,7.42537 12.61007,10.02753 18.02168,4.61592 z m -69.572507,9.54579 c -8.191654,-3.15622 -14.381592,-9.45063 -16.476273,-16.75436 -2.570304,-8.96212 -0.126441,-19.96735 5.83202,-26.26281 7.978879,-8.43014 22.21772,-10.62842 32.31689,-4.98928 12.271448,6.85209 17.270642,22.79439 11.001389,35.08314 -2.646675,5.18791 -9.947959,11.5795 -14.934073,13.07337 -4.909855,1.47103 -13.726135,1.39645 -17.739953,-0.15006 z m 18.128355,-9.72433 c 10.429402,-6.44572 10.706357,-22.79555 0.502622,-29.67184 -6.77313,-4.56442 -14.856447,-4.17262 -20.754517,1.00595 -1.995167,1.75178 -4.235545,4.64013 -4.97862,6.41856 -3.75684,8.99138 0.860745,20.27397 9.648956,23.57621 3.746878,1.40792 12.338995,0.67514 15.581559,-1.32888 z m 79.560232,8.89158 c -12.18471,-6.03126 -14.55916,-21.68696 -4.77337,-31.47275 12.28817,-12.28817 31.5401,-5.34401 33.33253,12.02303 l 0.57886,5.60855 -15.13991,0 c -10.14755,0 -15.1399,0.35511 -15.1399,1.07692 0,0.59231 1.31538,2.39231 2.92308,4 3.68738,3.68739 10.32776,4.08681 14.42056,0.86741 1.9613,-1.54276 3.76044,-1.9794 7.21067,-1.75 l 4.5973,0.30567 -2.33387,3.5 c -5.00221,7.50156 -16.86801,10.20098 -25.67595,5.84117 z m 19.85821,-22.61866 c 0,-2.10526 -3.48075,-5.28626 -6.90795,-6.31308 -2.92124,-0.87522 -4.69978,-0.86396 -7.46072,0.0472 -3.27307,1.08021 -6.63133,4.25338 -6.63133,6.26585 0,0.42762 4.725,0.77749 10.5,0.77749 5.775,0 10.5,-0.34987 10.5,-0.77749 z m 15,4.77749 0,-19 4.5,0 c 3.26595,0 4.5,0.39794 4.5,1.45111 0,1.19316 0.75548,1.10818 4.25,-0.47804 5.2011,-2.36086 7.55969,-2.43314 12.67031,-0.38828 6.79069,2.7171 7.53241,4.79305 7.91944,22.16521 l 0.33975,15.25 -4.58975,0 -4.58975,0 0,-13.04545 c 0,-12.5174 -0.0994,-13.14482 -2.45455,-15.5 -2.69499,-2.695 -4.10703,-2.95193 -8.02872,-1.46091 -4.1145,1.56433 -5.51673,6.38716 -5.51673,18.97424 l 0,11.03212 -4.5,0 -4.5,0 0,-19 z"
       id="path3048"
       inkscape:connector-curvature="0" />
  </g>
</svg>
